<svg xmlns="http://www.w3.org/2000/svg" viewBox="0 0 1160 650"><g id="Background"><rect width="1160" height="650" fill="#464f73"/></g><g id="Darker_envelope" data-name="Darker envelope"><path id="Virion_8" data-name="Virion 8" d="M894.77,585.87c-6.47,1.66-13,1.32-19.49.35,0-.82-.06-1.65-.13-2.48-.11-1.39.57-3.37-1.5-3.66-1.8-.24-2.4,1.4-2.78,2.93-.15.64-.39,1.26-.58,1.89-6.88-2.38-12.7-6.47-18.15-11.16.49-.65.94-1.33,1.47-1.94.9-1,1.95-2.25,1.06-3.43-1-1.38-2.64-.78-4,0-.57.31-1.15.6-1.73.9-5.77-6.62-8.4-14.53-9.55-23.07,2-.48,5.13.11,5-2.79-.09-2.37-3-1.07-4.64-1.64a6,6,0,0,1-.85-.49,60.86,60.86,0,0,1,5.45-21.19c1.75-.81,3.95,2.18,5.3-.33,1.1-2-1.46-2.5-2.37-3.68,3.6-6,8.94-10.26,14.73-14,1.86,1.53,2.65,4.44,5.6,4.66,1.11-2.58-.44-4.54-1-6.66A44.17,44.17,0,0,1,887,496c.71,1.68,0,4.48,2.5,4.76s2.31-2.17,2.6-3.88a40.57,40.57,0,0,1,22,10.11c-.12,1.36-2,2.55-.54,4.06,1.86,1.92,3.22-.57,4.86-.67,4.11,5.57,7.82,11.37,10.13,18-1.13,1-2.91,1.9-2.31,3.74.47,1.41,2.15,1,3.37,1.13a63.17,63.17,0,0,1-.26,18.47c-1.74.52-4.51-.54-5,1.77-.44,2,2.43,2.11,3.59,3.33-2.69,5-4.52,10.51-9,14.36-1.08-.52-2.2-1.79-3.38-.51-1.4,1.52-.53,3.27,0,4.91-5.05,3.41-9.88,7.2-15.84,9-1.44-1.24-1.59-4.59-4.52-3.36C892.83,582.21,894.42,584.24,894.77,585.87Zm22.18-54L916,530c-.54-5.63-4.45-9.16-8.16-12.71-9.31-8.9-25.37-11.63-36.77-6.4A33,33,0,0,0,852,542.31c1,21.71,26.22,38,46.52,30.29C915.77,566.05,923.33,546.54,917,531.88Z" fill="#76a6be"/><path id="Virion_7" data-name="Virion 7" d="M952.87,354.39c3.48-11.16,9.89-20.42,18.43-28.29,1.87.88,3.36,4,5.39,2.67,2.21-1.45-.41-3.73-.74-5.67,11.4-7.84,24.13-10.54,37.76-9.74.12,1.14.24,2.29.34,3.44s.63,2.3,2,2.42c1.81.16,2.1-1.18,2.21-2.58.07-.82.16-1.64.24-2.46,8.9.89,16.43,5.3,24.07,9.41-.2,2.71-4.78,5.33-1.25,7.76,2.29,1.57,3.54-2.59,5.58-3.72,5.77,4.64,9.32,11.07,13.6,16.9-.84,1.9-4.38,2.71-2.7,5.56,1.28,2.17,3.26,0,4.93.12,1.46,5.8,3.06,11.58,3.2,17.62-.82,0-1.64.12-2.45.12-1.82,0-4-.21-4.29,2.16-.41,3,2.56,1.64,3.87,2.46a8.61,8.61,0,0,0,2.85.6,62.71,62.71,0,0,1-7,24.68c-1.59.61-3.91-.93-4.83,1.12-.66,1.48,1.12,2.53,2,3.69-4.46,4.77-8.27,10.21-14,13.74-1.67-.84-2.09-4.56-4.81-2.67-2.47,1.72.16,3.75.52,5.65a2.85,2.85,0,0,0,.17.46,69.8,69.8,0,0,1-19.24,7.61,10,10,0,0,0-.68-1.3c-1.14-1.55-1-4.87-4-4s-1.21,3.47-1.1,5.39c0,.33,0,.65-.06,1a83.18,83.18,0,0,1-19.66-1.72l-.06-1.94c-.06-1.54.79-3.57-1.33-4.18s-2.57,1.41-3.29,2.81c-.3.57-.57,1.16-.85,1.74a109.59,109.59,0,0,1-16.7-9.65c.2-2.09,3.27-4.12.71-6.17-1.9-1.54-3.09,1-4.59,1.8-5.56-4.79-8.71-11.23-12.11-17.5.67-.44,1.34-.89,2-1.31,1.28-.8,2.58-1.69,1.94-3.44s-2.1-1.08-3.34-1c-.8,0-1.61.14-2.41.21-2.81-9.25-2.57-18.68-1.71-28.14,2-.37,4.88.33,5.45-2.22C957.58,355,954.33,355.46,952.87,354.39Zm94.23-4.57c-1.14-1.81-2-3.86-3.46-5.4-5.11-5.47-9.66-11.87-18.2-12.31-.11-.3-.23-.6-.35-.91-6-3.78-12.79-4.3-19.57-3.66-3.11.29-6.81-.19-9.13,3l0-.05c-3.23-.66-5.87,1-8.44,2.42-28.45,15.55-30.47,57.16-3.73,75.52s64.06,2.05,67.74-29.68v-2.34a11.46,11.46,0,0,0,.86-6.34,82.46,82.46,0,0,0-4-17.48C1048.58,351.45,1048.46,350.22,1047.1,349.82Z" fill="#76a6be"/><path id="Virion_6" data-name="Virion 6" d="M985.22,161.41c1.64-6,5.59-10.39,9.93-14.53,1.26.77,2.74,1.69,4.05.83s.54-2.32.1-3.53c3.82-2,7.65-4,12.15-3.94.44,1.48.54,3.51,2.71,3.22,1.87-.25,1-2.43,1.78-3.53a32.44,32.44,0,0,1,12.24,2.67c.08,1.72-.47,3.89,1.17,4.84,1.41.82,1.6-1.58,2.72-2.07,3.62,2.17,6,5.51,8.48,8.81-1.53,1.21-4.74,1.58-3.67,4.26.86,2.17,3.38.86,5.23.57a3,3,0,0,1,.94.16c1.18,5.19,2.1,10.39.93,15.72-.64,0-1.29,0-1.92-.08-1.32-.12-2.71-.26-3.19,1.35-.58,2,1,2.4,2.35,2.9.75.27,1.46.66,2.19,1-.73,5.46-4.09,9.62-7,14-1.93.16-2.93-3.57-5.11-1.51-1.6,1.52-.2,3.4.46,5.07-5.32,3.56-11,5.72-17.57,5.29-.3-1.52.42-3.71-1.91-4-2.66-.37-2.06,2.57-3.29,3.71a30.37,30.37,0,0,1-17.95-11.12,12.3,12.3,0,0,0,.9-1.15c.72-1.14,3-1.79,1.9-3.44-1-1.45-2.64-.4-4,.14-.45.18-.94.28-1.41.42-4.36-6.63-5.32-14-4.53-21.69,1.38-.55,3.5-.09,3.83-2.06C988.05,162.14,986.41,161.83,985.22,161.41Zm14.38-3.11,0-.05c-5.83,3.45-5.47,8.95-4.82,14.55l0,1.89c1.88,6.59,5.32,11.59,12.77,12.48l0-.06c1.23,1.82,3.1,2.34,5.13,2.67,11.78,1.87,21-6.1,21.71-18.9.42-7.79-2.67-14.26-9.12-18.3a18.94,18.94,0,0,0-19.93-.54C1002.73,153.47,999.88,154.7,999.6,158.3Z" fill="#76a6be"/><path id="Virion_5" data-name="Virion 5" d="M842.74,99c.7-5.26,3.83-9.14,7.26-12.85,1.67.86,2.44,3,4.66,3.23,1.12-2.52-1-4.16-1.56-6.2a32.26,32.26,0,0,1,17.66-5.74c.51,1.46.43,3.45,2.57,3.62s1.76-2,2.67-3c5.11.4,9.22,3.24,13.54,5.56-1.2,5.22-1.1,5.31,4,4a47.41,47.41,0,0,1,7,15c-1.14.89-2.71,1.56-2.41,3.36.26,1.57,1.78,1.1,2.81,1.37.22,4.47.15,8.9-2,13-4.82-.07-4.9.14-2.13,5.36-3.45,4-7,8-11.87,10.45-1.5-.83-2.13-3.71-4.27-2.65-1.7.84-.52,3-.52,4.56a34.72,34.72,0,0,1-18.21-.19c-.2-1.77,2.58-3.88-.22-5.24-2.09-1-3,1.34-4.38,2.42a4.1,4.1,0,0,1-.4.29c-5.2-2.14-8.45-6.51-12-10.49,1.13-1.18,4-1.4,3-3.76-.89-2.08-3.23-.5-4.86-.89a33,33,0,0,1-1.75-16.59c1.6-.52,4,.1,4.46-2.08C846.06,99.65,844.17,99.27,842.74,99Zm10.27,4.4c-.56.8-1.33,1.51-1,2.64.33,7.3,1.31,14.27,8.77,18.12l1.22,1.13c7.23,4.17,17.08,4,23-1,6.14-5.28,8.54-12.08,6.19-20.15a2.28,2.28,0,0,1-.23-.93c-1.37-4.28-3.29-8.15-7.68-10.15.3-2.46-.84-3.29-3.16-2.78-5.52-4-10-4.29-15.09-1l0-.06C858.27,90.33,853.49,96,853,103.35Z" fill="#76a6be"/><path id="Virion_4" data-name="Virion 4" d="M311,553.75c-5.48,1.39-11,2.6-16.7,2.11-.61-2.05.71-5.43-2.52-5.71-3-.25-2.52,2.83-2.84,4.86-6.24-.51-11.69-3.23-17-6.22-.37-2.07,2.89-4.4-.05-6.13-2.39-1.41-3.07,1.62-4.57,2.57-4.75-3.89-8.14-8.89-11.44-14,.57-1.63,3.26-2.41,2.2-4.59-.85-1.75-2.65-.66-4-.67a40.09,40.09,0,0,1-2.93-20.64c1.65.19,3.84,1.69,4.72-.56,1.12-2.84-2.05-2.59-3.43-3.61a5.81,5.81,0,0,0-.86-.44A44.65,44.65,0,0,1,265.1,476c1.67.85,3.32,3.23,5.19,1.37,1.22-1.21-.67-2.92-1.28-4.37,9-7.44,19.68-9.19,30.85-9.42a17.53,17.53,0,0,1,1,2.73c.33,1.73.24,4.25,2.37,4.2,2.62-.07,1.79-2.92,2.25-4.65a6.34,6.34,0,0,0,0-1.45c9.37,1.94,17.19,6.77,24.25,13-.56.82-1.15,1.63-1.67,2.47-.7,1.1-1.77,2.29-.46,3.53s2.48.23,3.62-.44c.57-.33,1.12-.7,1.68-1.06a38.64,38.64,0,0,1,8.13,18c-1.39,1-3.72,1.44-3.3,3.63s2.66,1.16,4.11,1.54a45.78,45.78,0,0,1-.95,15.52c-.5,0-1,0-1.49,0-1.53.15-3.86-.81-4.17,1.35-.25,1.81,1.94,2.38,3.51,2.93a7.74,7.74,0,0,0,1,.21,50.36,50.36,0,0,1-7,13.07c-4.53-1.2-4,1.48-3.28,4.29-4.44,3.27-8.59,7-13.62,9.38-1.29-1.06-1.74-3.69-4-2.89C309.29,549.93,311.43,552.18,311,553.75Zm18.12-44.21c1.74-18.14-15.76-33.13-32.63-32.72-18.46.44-32.34,13.77-32.39,32a32.74,32.74,0,0,0,33.31,32.64C317.67,541.26,330.38,525,329.09,509.54Z" fill="#76a6be"/><path id="Virion_3" data-name="Virion 3" d="M136,515.36a26.31,26.31,0,0,1,2,14.43c-1.55.47-3.47-.46-5.11,1.27l4.18,2.79c-1.62,3.95-4.41,7-7.34,10l-1.11-1.63c-.8-1.15-1.26-3.12-3.21-2.19s-.64,2.58-.37,3.93a12.78,12.78,0,0,0,.64,1.86,27.18,27.18,0,0,1-14.37.53c-.49-1.4.6-3.48-1.4-4.18-1.63-.57-1.74,1.53-2.79,2.12-4-1.73-6.83-4.82-9.06-8.49.75-.91,2.53-1.23,2-2.91-.66-2-2.49-.74-3.72-1.19a37.32,37.32,0,0,1,1-16c1.52,0,3.49,1.06,4.41-.56,1.1-1.91-1.31-2.53-2.16-3.73,4.51-4.54,9.68-7.74,16.29-8,.47,1.64.56,3.5,2.27,4.61a7.29,7.29,0,0,0,2.09-3.95c4.92,1.43,9.76,3,12.56,7.83-1.12,1.1-3.95,1.07-3.42,3,.61,2.18,3.06.76,4.7.88A7.09,7.09,0,0,0,136,515.36Z" fill="#76a6be"/><path id="Virion_2" data-name="Virion 2" d="M160.72,327.33c2.63,5.1,6.21,9.75,7.31,15.57-2,1.77-6.41,2.62-5.54,5.24s4.55.17,7,.11a54.13,54.13,0,0,1-.79,18.39,13.57,13.57,0,0,0-2.38-.59c-1.28-.1-2.84-.4-3.21,1.41-.34,1.64.86,2.32,2.16,2.86.76.32,1.48.72,2.22,1.08-3.17,6.77-6.93,13.12-12.67,18.09-.61-.55-1.26-1.07-1.83-1.66a2.38,2.38,0,0,0-3.12-.65c-1.41.95-.83,2.28-.12,3.48.42.71.8,1.43,1.21,2.15a55.82,55.82,0,0,1-17.31,7.51c-1.21-1.57-1.08-4.89-4-4.14-2.29.58-1.43,3-1.2,4.76a48.21,48.21,0,0,1-18.09-2.13c-.54-1.71,1-4.49-1.82-5-2.12-.35-2.07,2.15-2.82,3.51-6-3.16-11.17-7.43-16.36-11.68.4-1.73,3-3.16,1.16-5.13-1.39-1.51-2.95,0-4.36.6-4.95-5.77-7.3-12.67-8.72-20,1.24-1.56,5.06-.53,4.39-3.59-.44-2-2.94-1.56-4.74-1.32-.73-7.17,1.12-13.93,3.25-20.65,1.8.13,3.8.25,4.69-1.59.76-1.56-1.16-2.1-2-3a46.64,46.64,0,0,1,11.14-13c1.21.4,1.7,2.47,3.25,1.78,1.27-.56.52-2.06.68-3.13.11-.66.2-1.31.3-2,6.11-2.47,12-5.62,18.8-6,1.1,1,.32,3.67,2.86,3.44s1.9-2.3,2.23-3.82a51.73,51.73,0,0,1,16.61,3c0,5.09,3.09,1.65,4.89,1.82,4.56,3.09,9.22,6.07,13.13,10-.76,1.68-3.87,2.61-2.4,4.84,1.74,2.63,3.77-.34,5.72-.48A2.14,2.14,0,0,0,160.72,327.33Zm-23.11-.88c-.44-2.17-2.17-2.82-4-3.29-9.61-2.51-18.9-1.67-27.44,3.48C93,334.59,87.47,349.21,91.66,364.23c4,14.4,16.63,23.78,32,23.78a31.75,31.75,0,0,0,29.94-20.16c5-12.43,1.65-29-7.81-37.43C143.53,328.42,141.38,325.59,137.61,326.45Z" fill="#76a6be"/><path id="Virion_1" data-name="Virion 1" d="M109.43,168.84a74,74,0,0,1,0-20.33c1.77,0,4,.54,4.55-1.78.59-2.54-2.09-2.47-3.47-3.4,1.58-6.4,4.8-12.07,7.93-17.78,2,0,4.16,2.76,5.88.4s-1.45-3.13-2.29-4.7a58.28,58.28,0,0,1,14.2-11.88c1.28,1.26,2.14,3.83,4.47,2.5,2.06-1.17.1-3.17.16-4.79,6.79-3.83,14.22-5.21,21.87-5.8.65,2.22.38,5.72,3.52,5.44,2.37-.22,1.61-3.44,1.95-5.43A55.71,55.71,0,0,1,189.88,107c-.55,2-2,4.49.61,5.67,2,.92,2.82-1.7,4-3,.11-.12.25-.22.37-.33q8.39,6.65,16.76,13.26a12,12,0,0,1-1.17,1.54c-1,.95-2,2.13-1.21,3.38,1,1.64,2.57.63,3.91.16L215,127a67.8,67.8,0,0,1,9.18,17.28,13.06,13.06,0,0,1-1.29.66c-1.38.52-3,1-2.73,2.86.32,2.13,2.17,1.39,3.52,1.46.65,0,1.3,0,1.95,0A80.37,80.37,0,0,1,226.84,166c-2.16.76-5.87-1.74-6.42,1.56-.52,3.12,3.61,2.48,5.56,3.71-.82,7.2-3.91,13.59-7.1,19.94a5.92,5.92,0,0,1-1.4-.39c-1.49-.8-3-2.72-4.63-.66-1.82,2.37.9,3.26,2.05,4.6l1,1.1c-4.69,5.78-10.42,10.45-16.25,15-2.12-1-3.16-5-5.92-3.31-2.22,1.39.93,3.81.75,5.9-6.85,2.51-13.77,4.73-21.13,5.16-1.22-2.11-.13-6.4-3.42-6.2s-1.09,4.15-2,6.22c-7.53-.26-14.6-2.5-21.64-4.89a8.47,8.47,0,0,1,.18-1.43c.46-1.48,1.68-3.25-.28-4.24s-2.81,1-3.91,2.1c-.33.34-.71.63-1.07.95-6.34-3.55-12.43-7.44-17.22-13,.74-1.62,3.6-2.81,1.64-5-1.62-1.77-3.19.64-4.84.88l-.48.12c-4-6.28-7.93-12.62-9.46-20.08,1.47-1.53,5.57-.08,5-3.35-.52-3-3.89-1-5.88-1.72A2.53,2.53,0,0,0,109.43,168.84Zm91.51-36.72.06,0a10.28,10.28,0,0,0-3.47-5.92c-19.29-18.74-53.6-15-68.89,7.48-15,22.09-6.32,53.17,18,64.32,14.35,6.58,28.74,7.48,42.55-.85,22.08-13.31,28.4-39,15.68-61.62C203.93,134,203.1,132.31,200.94,132.12Z" fill="#76a6be"/></g><g id="Lighter_envelope" data-name="Lighter envelope"><path id="Virion_8-2" data-name="Virion 8" d="M917,531.88c6.38,14.66-1.18,34.17-18.43,40.72-20.3,7.7-45.47-8.58-46.52-30.29a33,33,0,0,1,19.06-31.38c11.4-5.23,27.46-2.5,36.77,6.4,3.71,3.55,7.62,7.08,8.16,12.71-3.85,0-7.43.5-9.86,4.55C910.5,535.44,914,534.91,917,531.88ZM861,551c2.15-1.08,5.82-.14,6.87-3.74.4-1.39-1.09-2.08-2.26-1.76-2.72.76-6.25.38-7.56,3.56C857.39,550.72,859.31,550.9,861,551Zm-.41-26.1c-.43.18-1.19.27-1.55.7a1.5,1.5,0,0,0,.34,2.21c2.26,1.67,4.46,3.5,7.3,4.14a1.71,1.71,0,0,0,2.12-.86,1.76,1.76,0,0,0-.51-2.23A25.16,25.16,0,0,0,860.62,524.86ZM877,564c0,1.79,0,3.45,1.53,3.72s2.17-1.43,2.4-2.65c.45-2.34,2.08-4.69.44-7.13a1.31,1.31,0,0,0-2.11-.36C877.27,559.43,877.53,562.07,877,564Zm7.43-21.52c-.22-1.37-1.21-2-2.13-1.57-2.49,1.14-5.17,2.36-6.15,5.11-.43,1.19,1,2,2.29,1.54C881,546.57,883.62,545.46,884.42,542.47Zm-1.55-27c-1.18-1.18.28-4.68-2.91-5.35-1.42-.29-2.09,1.69-1.69,2.93.75,2.35.08,5.79,3.38,6.46C882.79,519.79,883.08,517.65,882.87,515.52Zm18,46.78c-1.1-1.81-.94-5.16-4-6.15-1.22-.39-2.13,1.16-1.7,2.3,1,2.68,1.36,6,4.48,7.12C900.34,565.84,901.12,564.13,900.84,562.3Zm.08-45.83c0-1.44-.56-2.73-1.9-2.37-3,.83-3.11,3.9-3.9,6.28-.37,1.11.57,2.8,1.67,2.29C899.27,521.49,899.68,518.56,900.92,516.47ZM912.65,553c1.54-.25,3.93.37,3.3-1.91-.78-2.82-3.7-2.22-5.92-2.13-1.42.06-4.46-.82-3.95,1.15C906.78,552.84,910.32,552.52,912.65,553Zm-15.34-5.69c-1.06-2.72-3.31-4.32-6-5.3-.91-.34-2.59.21-2.16,1.2,1.21,2.79,3.8,4.38,6.49,5.59C896.59,549.24,897,548.3,897.31,547.32Zm-6.18-16c-.25-1.38,0-3.62-1.7-3-2.47.85-2.52,3.6-2.47,5.94,0,1-.38,2.94,1.31,2.58C891.19,536.21,890.63,533.32,891.13,531.33Z" fill="#b4dbe5"/><path id="Virion_7-2" data-name="Virion 7" d="M1025.44,332.11c8.54.44,13.09,6.84,18.2,12.31,1.43,1.54,2.32,3.59,3.46,5.4-3.45,1.64-6.54,3.7-8.43,7.17-.48.87-1,1.89-.08,2.65a1.94,1.94,0,0,0,2.65-.29c2.53-2.29,5.61-4,7.65-6.8a82.46,82.46,0,0,1,4,17.48,11.46,11.46,0,0,1-.86,6.34c-4-1.45-8-2.59-12.28.7,4.21,2.57,8.2,2.43,12.28,1.64-3.68,31.73-41,48.06-67.74,29.68s-24.72-60,3.73-75.52c2.57-1.41,5.21-3.08,8.44-2.42-1.07,4.33.52,7.45,4.43,9.5-.73-3.51.64-8-4.47-9.45,2.32-3.15,6-2.67,9.13-3,6.78-.64,13.53-.12,19.57,3.66-3.28,1-5.63,5.93-5,10.3.12.84.15,1.74,1,2.09,1.28.51,1.81-.6,2.21-1.41A21,21,0,0,0,1025.44,332.11ZM975.83,378c.87-.05,1.53-.06,2.19-.13,2.17-.23,5.74.41,5.57-2.33s-3.77-2.42-6.22-2.5a3.74,3.74,0,0,0-1.46.16c-2,.83-5.45.92-5.06,3.68C971.18,379.23,974.26,377.48,975.83,378Zm51.94,1.11c.53-.25,1.14-.35,1.34-.68a1.82,1.82,0,0,0-.4-2.25,19.33,19.33,0,0,0-10.5-4.88,1.81,1.81,0,0,0-2,1.18,1.59,1.59,0,0,0,.71,2.12C1020.53,376.16,1024.16,377.6,1027.77,379.09Zm-16.71,21.28c-.3,2.56.83,4.85,1.42,7.23.21.88.43,2.63,2,2.2,1.17-.32,1.47-1.56,1.61-2.79.3-2.55-.71-4.87-1.16-7.28-.27-1.48-.81-3.71-2.89-3.23C1010.29,396.91,1011.23,399,1011.06,400.37Zm-25.72-44.22c1-.33,2.28.41,2.62-1,.25-1-.69-1.46-1.36-1.81-3-1.6-6.13-3.13-9.22-4.64-.68-.33-1.43-1.05-2.17-.13a1.92,1.92,0,0,0,.31,2.69A17.08,17.08,0,0,0,985.34,356.15Zm8.85,40c0-1.23,0-2.09-1.09-2.35a2.25,2.25,0,0,0-2.24.74,19.62,19.62,0,0,0-4.63,9.75c-.34,1.63.81,2.17,2.09,1.1C991.33,402.87,992.89,399.4,994.19,396.16Zm19.21-36.55c-.56-2.29-1.14-5-1.93-7.63a1.71,1.71,0,0,0-2.25-1.3,2,2,0,0,0-1.1,2c-.07,2.85.91,5.45,1.82,8.08.43,1.24.74,3.15,2.08,3C1014.16,363.48,1012.64,361.32,1013.4,359.61Zm-7.82,12.44c-.16-.83-1.07-1.18-2.35-1.12-2.09.09-7.75,5.47-8,7.53-.13,1.15.44,1.41,1.36,1.51C998.27,380.15,1005.3,374.4,1005.58,372.05Zm31.5,25.54c-.67-2.37-2.86-4.85-5.78-6.39-1.74-.92-3,.52-2.25,2.33a12.85,12.85,0,0,0,6.39,6.5C1036.73,400.64,1037.21,399.9,1037.08,397.59Z" fill="#b4dbe5"/><path id="Virion_6-2" data-name="Virion 6" d="M999.6,158.3c.28-3.6,3.13-4.83,5.77-6.26a18.94,18.94,0,0,1,19.93.54c6.45,4,9.54,10.51,9.12,18.3-.7,12.8-9.93,20.77-21.71,18.9-2-.33-3.9-.85-5.13-2.67,4.08.41,3.17-2.9,3.68-5.05a1.23,1.23,0,0,0-1.37-1.61c-2.81.46-1.9,3.05-2.49,4.75-.19.57.14,1.31.23,2-7.45-.89-10.89-5.89-12.77-12.48,3.32,1.24,5.89.15,8.5-2.63-3.33-1.22-6-1.5-8.53.74-.65-5.6-1-11.1,4.82-14.55-.27,3.85,3,4.37,5.44,5.36,1.15.48,1.41-1.41,1-2.13C1004.72,159,1003.23,156.33,999.6,158.3Zm15.25,2.4c.48-.6,1.26-1.14,1.39-1.81.47-2.48,2.36-4.92.62-7.51-.43-.66-1.71-.9-2.13-.07-1.41,2.75-3.18,5.58-.78,8.7A4.71,4.71,0,0,0,1014.85,160.7Zm11.95,21.13c-.92-2.85-3.28-4.44-5.59-6a1.54,1.54,0,0,0-2.27,1.14c.32,3.16,2.88,4.58,5.39,5.87C1025.42,183.41,1026.2,182.78,1026.8,181.83Zm1.47-18.6c-2.28-.08-4.87-.5-6,2-.52,1.17,1.11,1.88,2.29,1.86,2.4-.05,5.26.09,6.25-2.57C1031.36,163.13,1029.2,163.65,1028.27,163.23Z" fill="#b4dbe5"/><path id="Virion_5-2" data-name="Virion 5" d="M860.79,124.11c-7.46-3.85-8.44-10.82-8.77-18.12a9.6,9.6,0,0,0,2.3.82c2.07.22,4.27.94,6.13-.6a1.85,1.85,0,0,0,.39-1.72c-1.48-2.25-3.86-1.16-5.88-1.38a8.19,8.19,0,0,0-2,.24c.48-7.37,5.26-13,12-14.24a8.2,8.2,0,0,0,1.26,6.65c.65.93,1.54,2.08,2.67.48,1.57-2.23-.87-6.53-4-7.07,5.1-3.26,9.57-3,15.09,1-1,1.09-2.26,2-2.81,3.31-.69,1.59-1.26,3.85.63,4.87s2-1.41,2.89-2.36,1.63-2,2.45-3c4.39,2,6.31,5.87,7.68,10.15a9.46,9.46,0,0,0-10.2,4.25c5.41.7,8.25-.26,10.43-3.32,2.35,8.07,0,14.87-6.19,20.15-5.88,5-15.73,5.2-23,1,3.46-1.2,3.42-4.35,3.94-7.16a2.16,2.16,0,0,0-1.47-2.72c-1-.23-1.78.78-2.24,1.64A15,15,0,0,0,860.79,124.11Zm22.8-2.24c0-2.59-3.57-7.52-5.3-8-.91-.25-2-.08-2.14.65-.48,3.11,2.29,4.52,3.8,6.59a5.83,5.83,0,0,0,1.45,1.35C882.77,123.39,883.52,123,883.59,121.87Z" fill="#b4dbe5"/><path id="Virion_4-2" data-name="Virion 4" d="M329.09,509.54c1.29,15.43-11.42,31.72-31.71,31.95a32.74,32.74,0,0,1-33.31-32.64c.05-18.26,13.93-31.59,32.39-32C313.33,476.41,330.83,491.4,329.09,509.54ZM297.57,512c2-.89,6.2.32,5.93-3.13-.2-2.53-1.63-6.92-5.2-6.92s-4.32,4.22-5.05,7C292.57,511.49,295.2,511.86,297.57,512Zm-24.76,12c3.24-1.52,6.26-2.81,8.74-5a2,2,0,0,0,.6-2.24,1.54,1.54,0,0,0-2-.86,15.35,15.35,0,0,0-8.4,5.58,2.09,2.09,0,0,0-.3,1.76C271.62,523.61,272.42,523.76,272.81,524Zm24.66,6.1c-.62-1.91,1.25-5.38-1.65-5.71-2.42-.28-2.82,3.18-2.7,5.38.13,2.43-1.45,6.6,1.7,6.82C298.45,536.8,296.55,532.46,297.47,530.06Zm24.29-21c2.37-.24,5.23,0,6.1-2.9.47-1.54-1.4-2.26-2.69-1.85-2.5.81-6.26.06-6.95,3.45C317.83,509.67,320.47,508.61,321.76,509.05Zm-7.83-23.87a1.93,1.93,0,0,0-1.3-2.07,1.8,1.8,0,0,0-2.15.82,15.61,15.61,0,0,0-3.33,8.12c-.06.75.79,1.11,1.47.88,2.89-1,3.31-3.86,4.56-6.1A17.13,17.13,0,0,0,313.93,485.18Zm-43.54,12.21c2.38,3.53,5.61,4,8.47,5.1.82.32,1.6.59,2.16-.32a1.75,1.75,0,0,0-.77-2.54C277.45,498,274.6,496.32,270.39,497.39Zm42.84,24.52c-1.64-.11-2.53.39-2.05,1.65a12.07,12.07,0,0,0,5.86,6.36c.89.47,2.3,0,1.87-1.31C317.92,525.52,315.5,523.53,313.23,521.91ZM287.83,482c.84,2.42.82,5.69,3.94,7,1.07.44,1.55-1.17,1.19-2.1-1-2.65-.7-6.24-3.7-7.61C287.66,478.57,288.2,480.74,287.83,482Z" fill="#b4dbe5"/><path id="Virion_2-2" data-name="Virion 2" d="M137.61,326.46c3.77-.87,5.92,2,8.15,4,9.46,8.44,12.79,25,7.81,37.43A31.75,31.75,0,0,1,123.63,388c-15.34,0-27.95-9.38-32-23.78-4.19-15,1.32-29.64,14.53-37.59,8.54-5.15,17.83-6,27.44-3.48,1.81.47,3.54,1.12,4,3.29-4.21-.21-5.45,2.59-3.64,8.5C137.36,333,137.77,329.85,137.61,326.46Zm3,35.69a19.15,19.15,0,0,0,8.62,2.82c1.26.14,2.83.27,2.89-1.72a2.05,2.05,0,0,0-2.16-2.21C147.07,360.87,144.1,359.67,140.59,362.15ZM110,376.52c.14,1.59-.14,3.58,1.72,3.23,2.78-.53,2.68-3.44,3.27-5.57.38-1.38-.38-3.2-1.79-2.91C110.45,371.83,110.7,374.71,110,376.52ZM128.34,351c2.26-1.32,6.13-.37,7.44-3.79.43-1.12-1.61-1.5-2.67-1.19-2.71.81-6.17.56-7.59,3.54C124.91,350.88,126.88,350.92,128.34,351Zm6.91,26.34c-.56-2.6-.21-5.91-3.88-6.53-1.49-.25-1.69,1.38-1.47,2.55.53,3,1.53,6.07,4.36,7.18C135.67,381.14,135,378.6,135.25,377.38Zm-13.42-29c-3.16-2.1-5.54-3.78-8-5.24a2.45,2.45,0,0,0-2.25.34c-.78.69-.08,1.47.55,2C114.52,347.66,116.8,350.21,121.83,348.41Zm23.49-3.28c2.24-.25,5,.19,5.66-2.67.42-1.72-1.26-2.16-2.63-1.9-2.33.45-5.33.36-5.74,3.5C142.41,345.56,144.33,344.94,145.32,345.13ZM117.65,333c1.1-2.46.4-4.44-.7-6.34-.82-1.41-2-2.42-3.64-1.53-2,1.05-.94,2.5-.2,3.77C114.1,330.6,115.18,332.25,117.65,333Zm8.62,27.68c-1.38-1.39.12-4.78-3-5.59-1.49-.38-1.79,1.5-1.66,2.47.32,2.36.14,5.35,3.1,6.16C126.38,364.17,125.89,362.24,126.27,360.67ZM106,352c-3.12-1.83-5.77-2.92-8.64-.84a1.22,1.22,0,0,0,.26,2.09C100.37,354.53,103.06,354.58,106,352Z" fill="#b4dbe5"/><path id="Virion_1-2" data-name="Virion 1" d="M200.94,132.12c2.16.19,3,1.83,3.9,3.46,12.72,22.64,6.4,48.31-15.68,61.62-13.81,8.33-28.2,7.43-42.55.85-24.29-11.15-33-42.23-18-64.32,15.29-22.48,49.6-26.22,68.89-7.48a10.28,10.28,0,0,1,3.47,5.92c-4.05-.5-6.31,2.13-8.37,4.94-.93,1.26-.84,2.61,1.06,2.87C196.54,140.39,201.26,135.19,200.94,132.12Zm-10.08,24.74a2.33,2.33,0,0,0-2.08-1.78,10.2,10.2,0,0,0-5.31.85c-1.92.82-4.78,1.4-3.94,4,.78,2.41,3.12.49,4.76.2s3.2-.71,4.79-1.14A2.26,2.26,0,0,0,190.86,156.86Zm-30.69-2.26c-2.1-4-6.13-4.14-9.12-5.89-1-.59-1.93-.63-2.6.3-.93,1.27,0,2.17.93,2.85C152.48,154,155.57,156.29,160.17,154.6Zm-11,28.51c-.33-1-.76-2.07-1.88-1.91-2.24.31-3.66,1.94-4.93,3.71a5.81,5.81,0,0,0-1.34,5,1.13,1.13,0,0,0,1.88.72C145.77,188.84,147.44,186,149.19,183.11Zm54.52-27.05c.74,0,1.24,0,1.73,0,2.13-.17,4.92-.15,4.43-3.13-.41-2.55-3-1.8-5-1.58-.48.06-.93.32-1.41.43-1.91.4-4.58.63-4.19,3.09S202.41,155.49,203.71,156.06Zm-14.82,35.77c-.08-2.31-3.55-7-5.36-7-1.29,0-2.2.6-2.2,2.08,0,2,4.6,7.53,6.14,7.27C188.62,194,189,193.14,188.89,191.83Zm-27.82-23.19c.2-1.85-.29-2.89-1.83-2.62-3.53.63-4.38,3.65-5.26,6.46-.33,1.06-.33,2.75,1.37,2.47C159,174.35,159.71,170.9,161.07,168.64ZM179.25,175c-.2-3.36-2.08-5.49-3.84-7.63-.7-.85-1.73-1.85-2.91-.88a2.14,2.14,0,0,0-.13,2.75c1.32,2.27,2.73,4.49,4.16,6.69.44.69,1.18,1.47,2,.88C179,176.38,179.1,175.38,179.25,175Zm25,0c-.9-3.07-4.09-3.58-6.72-4.68-1.18-.49-2.23.35-2.41,1.74-.21,1.59,4.9,5,7.25,5C203.55,177,204.2,176.58,204.21,175Zm-36.14,18.92a15,15,0,0,0,0-1.81c-.22-1.48.79-3.81-1.73-3.93-2.8-.14-2.1,2.35-2.3,4a5.76,5.76,0,0,0-.08,1.49c.3,2.15-.9,5.89,1.77,5.93C168.69,199.63,167.93,195.91,168.07,193.87Zm3.18-50c-.39-1.93.77-5.19-1.82-5.35-2.23-.13-2.34,3.09-2.3,5.13,0,2.25-1,6,2.1,6C172,149.71,170.66,146,171.25,143.86Zm-10-21c-.73-2-.84-4.89-3.73-5.52-1.89-.41-1.8,1.63-1.59,2.85.43,2.39.71,5.24,3.6,5.87C161.6,126.49,161,124.41,161.26,122.84Zm-29.34,45.27c1.69-1.41,5.48.29,6-3.36.23-1.59-1.66-1.92-3-1.68-2.36.43-5.2.54-5.82,3.52C128.74,168.35,130.52,167.93,131.92,168.11Zm45-43.61c.5,1.19-.69,3.8,1.57,3.28,3-.69,3-4,3.57-6.45.28-1.21-.2-2.59-1.66-2.44C176.91,119.24,177.36,122.2,176.87,124.5Zm-42,10.95a3.41,3.41,0,0,0-1,.24,1.75,1.75,0,0,0-.8,2.14c1.12,2.95,3.76,3.86,6.48,4.65a1.75,1.75,0,0,0,2.13-.68.9.9,0,0,0-.12-.81A16,16,0,0,0,134.85,135.45Z" fill="#b4dbe5"/></g><g id="Virion_accents" data-name="Virion accents"><path d="M194.62,124.4c1.51,1,2.35,2.25,2.31,3.71,0,.34-.4.55-.59.83-3.55-1.88-7.12-3.72-10.57-5.77-.2-.12,0-2.63,1-3,2.77-1.08,5.22,2.84,7.84,4.27" fill="#d4ebf0"/><path d="M125.16,164.28c-3.57-4.57-4.16-13.6-1.87-16.51a3.65,3.65,0,0,1,2.43-1.23c.52,0,1.61,1,1.56,1.51-.55,5-1.28,10-2.12,16.23" fill="#d4ebf0"/><path d="M148.57,338.09,141.15,329c5,1.49,7.2,4.24,7.42,9.09" fill="#d4ebf0"/><path d="M1008.53,414.14c-5.43,2.83-16.13-.91-17.1-4.79-.2-.8,1.67-3,1.83-2.88,4.85,2.28,9.62,4.76,15.27,7.67" fill="#d4ebf0"/><path d="M1043,345.63c-4.12.34-10.55-5.17-10.26-7.67.08-.69.8-1.82,1.28-1.84,1-.06,2.5.13,3,.82,2,2.52,3.67,5.29,5.94,8.69" fill="#d4ebf0"/><path d="M853.46,538c3.54,3.35,3.72,7.22,1.74,11.42-3.44-3.37-4.36-7.13-1.74-11.42" fill="#d4ebf0"/><path d="M917.61,547.53c-2.34-3.61-3.72-7.28-.66-11.21,3.67,3.54,2.6,7.35.66,11.21" fill="#d4ebf0"/></g><g id="Spikes"><g id="Virion_8-3" data-name="Virion 8"><path d="M870.29,584.9c.19-.63.43-1.25.58-1.89.38-1.53,1-3.17,2.78-2.93,2.07.29,1.39,2.27,1.5,3.66.07.83.09,1.66.13,2.48-.07.32-.16.64-.22,1-.31,1.82-.79,4.17-2.79,4.06-2.2-.12-1.92-2.62-2-4.37A16.29,16.29,0,0,1,870.29,584.9Z" fill="#742017"/><path d="M892.11,496.9c-.29,1.71-.09,4.16-2.6,3.88s-1.79-3.08-2.5-4.76c1.57-2-.31-7,3.43-6.41C893.64,490.09,891.49,494.39,892.11,496.9Z" fill="#742017"/><path d="M838.91,541.25a6,6,0,0,0,.85.49c1.6.57,4.55-.73,4.64,1.64.12,2.9-3,2.31-5,2.79-2.33-.87-6.62,1.68-6.86-2.14C832.34,540.83,836.68,542.17,838.91,541.25Z" fill="#742017"/><path d="M929.66,533.23c-1.22-.16-2.9.28-3.37-1.13-.6-1.84,1.18-2.7,2.31-3.74,2.62.08,6.36-3.55,7.54.42.91,3.1-3.74,3.07-6,4.27A3.52,3.52,0,0,1,929.66,533.23Z" fill="#742017"/><path d="M847.29,516.05c.91,1.18,3.47,1.64,2.37,3.68-1.35,2.51-3.55-.48-5.3.33l-5.08-2.95a1.71,1.71,0,0,1-1-2c.27-1,1.15-1.05,2-1.1C842.84,513.83,844.92,515.45,847.29,516.05Z" fill="#742017"/><path d="M915.6,575.56c-.55-1.64-1.42-3.39,0-4.91,1.18-1.28,2.3,0,3.38.51.16.29.34.57.47.86,1.05,2.37,5.3,4.54,2.56,7C919.9,580.86,917.86,576.68,915.6,575.56Z" fill="#742017"/><path d="M918.47,510.4c-1.64.1-3,2.59-4.86.67-1.46-1.51.42-2.7.54-4.06l.43-.24c2.07-1.25,3.94-5,6.4-2.74C923.76,506.64,919.36,508.22,918.47,510.4Z" fill="#742017"/><path d="M866.6,500c.58,2.12,2.13,4.08,1,6.66-3-.22-3.74-3.13-5.6-4.66-.27-.77-.58-1.53-.79-2.32-.32-1.17-.36-2.39.81-3.08,1.57-.93,2.35.38,3.14,1.41C865.68,498.69,866.13,499.37,866.6,500Z" fill="#742017"/><path d="M848.94,569.24c.58-.3,1.16-.59,1.73-.9,1.36-.75,3-1.35,4,0,.89,1.18-.16,2.42-1.06,3.43-.53.61-1,1.29-1.47,1.94-1.71.65-3.29,3.4-5.18,1.32C844.63,572.49,848,571.13,848.94,569.24Z" fill="#742017"/><path d="M894.77,585.87c-.35-1.63-1.94-3.66.47-4.67,2.93-1.23,3.08,2.12,4.52,3.36.06.32.14.64.19,1,.24,1.65,1.88,3.83-.36,4.78-2.45,1-3-1.72-4-3.19C895.26,586.71,895,586.28,894.77,585.87Z" fill="#742017"/><path d="M928,556.8c-1.16-1.22-4-1.36-3.59-3.33.51-2.31,3.28-1.25,5-1.77,1.48,1.53,5.62.48,4.94,3.52S930.22,556.53,928,556.8Z" fill="#742017"/><path d="M917,531.88c-2.91,3-6.45,3.56-10.82,2.71,2.43-4.05,6-4.58,9.86-4.55Z" fill="#742017"/><path d="M861,551c-1.72-.06-3.64-.24-2.95-1.94,1.31-3.18,4.84-2.8,7.56-3.56,1.17-.32,2.66.37,2.26,1.76C866.85,550.82,863.18,549.88,861,551Z" fill="#742017"/><path d="M860.62,524.86a25.16,25.16,0,0,1,7.7,4,1.76,1.76,0,0,1,.51,2.23,1.71,1.71,0,0,1-2.12.86c-2.84-.64-5-2.47-7.3-4.14a1.5,1.5,0,0,1-.34-2.21C859.43,525.13,860.19,525,860.62,524.86Z" fill="#742017"/><path d="M877,564c.54-1.92.28-4.56,2.26-6.42a1.31,1.31,0,0,1,2.11.36c1.64,2.44,0,4.79-.44,7.13-.23,1.22-.81,2.93-2.4,2.65S877,565.78,877,564Z" fill="#742017"/><path d="M884.42,542.47c-.8,3-3.38,4.1-6,5.08-1.32.5-2.72-.35-2.29-1.54,1-2.75,3.66-4,6.15-5.11C883.21,540.48,884.2,541.1,884.42,542.47Z" fill="#742017"/><path d="M882.87,515.52c.21,2.13-.08,4.27-1.22,4-3.3-.67-2.63-4.11-3.38-6.46-.4-1.24.27-3.22,1.69-2.93C883.15,510.84,881.69,514.34,882.87,515.52Z" fill="#742017"/><path d="M900.84,562.3c.28,1.83-.5,3.54-1.25,3.27-3.12-1.15-3.5-4.44-4.48-7.12-.43-1.14.48-2.69,1.7-2.3C899.9,557.14,899.74,560.49,900.84,562.3Z" fill="#742017"/><path d="M900.92,516.47c-1.24,2.09-1.65,5-4.13,6.2-1.1.51-2-1.18-1.67-2.29.79-2.38.85-5.45,3.9-6.28C900.36,513.74,900.92,515,900.92,516.47Z" fill="#742017"/><path d="M912.65,553c-2.33-.49-5.87-.17-6.57-2.89-.51-2,2.53-1.09,3.95-1.15,2.22-.09,5.14-.69,5.92,2.13C916.58,553.38,914.19,552.76,912.65,553Z" fill="#742017"/><path d="M897.31,547.32c-.27,1-.72,1.92-1.67,1.49-2.69-1.21-5.28-2.8-6.49-5.59-.43-1,1.25-1.54,2.16-1.2C894,543,896.25,544.6,897.31,547.32Z" fill="#742017"/><path d="M891.13,531.33c-.5,2,.06,4.88-2.86,5.5-1.69.36-1.29-1.54-1.31-2.58-.05-2.34,0-5.09,2.47-5.94C891.15,527.71,890.88,530,891.13,531.33Z" fill="#742017"/></g><g id="Virion_7-3" data-name="Virion 7"><path d="M1062.72,350.21c-1.67-.08-3.65,2.05-4.93-.12-1.68-2.85,1.86-3.66,2.7-5.56,2.08-.43,4.14-1,6.24-1.27a2.38,2.38,0,0,1,2.78,1.52c.43,1.34-.63,2.14-1.61,2.71C1066.21,348.47,1064.45,349.31,1062.72,350.21Z" fill="#742017"/><path d="M987.69,425.19c.28-.58.55-1.17.85-1.74.72-1.4,1.19-3.42,3.29-2.81s1.27,2.64,1.33,4.18l.06,1.94c-1.7,1.88-.74,6.91-4.72,5.63C985.6,431.45,987.61,427.71,987.69,425.19Z" fill="#742017"/><path d="M953.21,388.11c.8-.07,1.61-.17,2.41-.21,1.24-.06,2.75-.6,3.34,1s-.66,2.64-1.94,3.44c-.68.42-1.35.87-2,1.31-1.24.4-2.45.86-3.7,1.19s-2.91,1.47-3.8-.51c-.74-1.63.37-2.84,1.56-3.73S951.82,388.94,953.21,388.11Z" fill="#742017"/><path d="M1065.9,373.17a8.61,8.61,0,0,1-2.85-.6c-1.31-.82-4.28.56-3.87-2.46.32-2.37,2.47-2.17,4.29-2.16.81,0,1.63-.08,2.45-.12a3.43,3.43,0,0,1,.92.3c1.86,1.23,6.09,0,5.51,3.33C1071.86,374.33,1068.15,372.69,1065.9,373.17Z" fill="#742017"/><path d="M1046.89,327.63c-2,1.13-3.29,5.29-5.58,3.72-3.53-2.43,1-5.05,1.25-7.76.72-.37,1.42-.77,2.14-1.14,1.31-.68,2.74-1.5,3.91,0,1,1.27.07,2.42-.72,3.49C1047.51,326.5,1047.22,327.08,1046.89,327.63Z" fill="#742017"/><path d="M1012.88,428.48c0-.33.07-.65.06-1-.11-1.92-2-4.53,1.1-5.39s2.82,2.49,4,4a10,10,0,0,1,.68,1.3,20,20,0,0,1,.41,2.42c.06,1.44.42,3.24-1.47,3.7-1.52.37-2.17-1.12-2.87-2.23C1014.15,430.38,1013.5,429.43,1012.88,428.48Z" fill="#742017"/><path d="M952.87,354.39c1.46,1.07,4.71.56,4.08,3.36-.57,2.55-3.45,1.85-5.45,2.22a4,4,0,0,0-.39-.3c-2-1.31-6.44-.7-5.32-4.26C946.68,352.57,950.38,354.33,952.87,354.39Z" fill="#742017"/><path d="M1056,402.66c-.84-1.16-2.62-2.21-2-3.69.92-2.05,3.24-.51,4.83-1.12,1.68.6,3.37,1.15,5,1.82,1.07.44,2.15,1.06,1.86,2.49s-1.38,1.65-2.58,1.78C1060.64,404.21,1058.4,403,1056,402.66Z" fill="#742017"/><path d="M967.11,411.17c1.5-.76,2.69-3.34,4.59-1.8,2.56,2.05-.51,4.08-.71,6.17-2,1-3.87,4.72-6,2.74C962.53,415.92,966.05,413.51,967.11,411.17Z" fill="#742017"/><path d="M1037.92,419.84a2.85,2.85,0,0,1-.17-.46c-.36-1.9-3-3.93-.52-5.65,2.72-1.89,3.14,1.83,4.81,2.67a4.21,4.21,0,0,0,.09.49c.87,2.38,3.57,5.62,1.32,7.08C1040.89,425.63,1039.83,421.31,1037.92,419.84Z" fill="#742017"/><path d="M976,323.1c.33,1.94,2.95,4.22.74,5.67-2,1.34-3.52-1.79-5.39-2.67-.7-2.17-3.88-4.65-1.41-6.42C972.65,317.71,973.78,322.06,976,323.1Z" fill="#742017"/><path d="M1018.49,314.18c-.08.82-.17,1.64-.24,2.46-.11,1.4-.4,2.74-2.21,2.58-1.36-.12-1.87-1.15-2-2.42s-.22-2.3-.34-3.44c.08-.64.16-1.28.25-1.92.22-1.4.11-3.2,2.22-3,1.61.12,1.81,1.58,2,2.9C1018.23,312.27,1018.37,313.22,1018.49,314.18Z" fill="#742017"/><path d="M1048.89,352.55c-2,2.84-5.12,4.51-7.65,6.8a1.94,1.94,0,0,1-2.65.29c-.91-.76-.4-1.78.08-2.65,1.89-3.47,5-5.53,8.43-7.17C1048.46,350.22,1048.58,351.45,1048.89,352.55Z" fill="#742017"/><path d="M1025.44,332.11a21,21,0,0,1-2.1,10.07c-.4.81-.93,1.92-2.21,1.41-.87-.35-.9-1.25-1-2.09-.65-4.37,1.7-9.27,5-10.3C1025.21,331.51,1025.33,331.81,1025.44,332.11Z" fill="#742017"/><path d="M1052,378.71c-4.08.79-8.07.93-12.28-1.64,4.29-3.29,8.27-2.15,12.28-.7Z" fill="#742017"/><path d="M975.83,378c-1.57-.5-4.65,1.25-5-1.12-.39-2.76,3-2.85,5.06-3.68a3.74,3.74,0,0,1,1.46-.16c2.45.08,6.06-.16,6.22,2.5s-3.4,2.1-5.57,2.33C977.36,377.92,976.7,377.93,975.83,378Z" fill="#742017"/><path d="M1027.77,379.09c-3.61-1.49-7.24-2.93-10.82-4.51a1.59,1.59,0,0,1-.71-2.12,1.81,1.81,0,0,1,2-1.18,19.33,19.33,0,0,1,10.5,4.88,1.82,1.82,0,0,1,.4,2.25C1028.91,378.74,1028.3,378.84,1027.77,379.09Z" fill="#742017"/><path d="M1011.06,400.37c.17-1.36-.77-3.46,1-3.87,2.08-.48,2.62,1.75,2.89,3.23.45,2.41,1.46,4.73,1.16,7.28-.14,1.23-.44,2.47-1.61,2.79-1.62.43-1.84-1.32-2-2.2C1011.89,405.22,1010.76,402.93,1011.06,400.37Z" fill="#742017"/><path d="M985.34,356.15a17.08,17.08,0,0,1-9.82-4.9,1.92,1.92,0,0,1-.31-2.69c.74-.92,1.49-.2,2.17.13,3.09,1.51,6.18,3,9.22,4.64.67.35,1.61.78,1.36,1.81C987.62,356.56,986.35,355.82,985.34,356.15Z" fill="#742017"/><path d="M994.19,396.16c-1.3,3.24-2.86,6.71-5.87,9.24-1.28,1.07-2.43.53-2.09-1.1a19.62,19.62,0,0,1,4.63-9.75,2.25,2.25,0,0,1,2.24-.74C994.15,394.07,994.15,394.93,994.19,396.16Z" fill="#742017"/><path d="M1013.4,359.61c-.76,1.71.76,3.87-1.38,4.15-1.34.18-1.65-1.73-2.08-3-.91-2.63-1.89-5.23-1.82-8.08a2,2,0,0,1,1.1-2,1.71,1.71,0,0,1,2.25,1.3C1012.26,354.62,1012.84,357.32,1013.4,359.61Z" fill="#742017"/><path d="M1005.58,372.05c-.28,2.35-7.31,8.1-9,7.92-.92-.1-1.49-.36-1.36-1.51.24-2.06,5.9-7.44,8-7.53C1004.51,370.87,1005.42,371.22,1005.58,372.05Z" fill="#742017"/><path d="M1037.08,397.59c.13,2.31-.35,3.05-1.64,2.44a12.85,12.85,0,0,1-6.39-6.5c-.78-1.81.51-3.25,2.25-2.33C1034.22,392.74,1036.41,395.22,1037.08,397.59Z" fill="#742017"/><path d="M996.39,330.5c5.11,1.47,3.74,5.94,4.47,9.45-3.91-2.05-5.5-5.17-4.43-9.5Z" fill="#742017"/></g><g id="Virion_6-3" data-name="Virion 6"><path d="M1009,202.61c1.23-1.14.63-4.08,3.29-3.71,2.33.32,1.61,2.51,1.91,4,0,.15-.1.31-.16.46-.88,2.07,0,6.07-3.19,5.64C1008.11,208.64,1009.2,205,1009,202.61Z" fill="#742017"/><path d="M1031.81,197.64c-.66-1.67-2.06-3.55-.46-5.07,2.18-2.06,3.18,1.67,5.11,1.51.53,1.7,3.3,3.26,1.35,5C1035.65,201.13,1033.77,198.45,1031.81,197.64Z" fill="#742017"/><path d="M1043.41,180.06c-.73-.34-1.44-.73-2.19-1-1.4-.5-2.93-.93-2.35-2.9.48-1.61,1.87-1.47,3.19-1.35.63.06,1.28.05,1.92.08,1.79.45,4.19.89,4,3S1045.17,179.78,1043.41,180.06Z" fill="#742017"/><path d="M1043.05,159.17a3,3,0,0,0-.94-.16c-1.85.29-4.37,1.6-5.23-.57-1.07-2.68,2.14-3.05,3.67-4.26,1.84-.19,4.17-1.23,5.15.94S1044.06,157.87,1043.05,159.17Z" fill="#742017"/><path d="M988.49,187.46c.47-.14,1-.24,1.41-.42,1.35-.54,3-1.59,4-.14,1.09,1.65-1.18,2.3-1.9,3.44a12.3,12.3,0,0,1-.9,1.15l-.88.43c-1.51.71-3,3.14-4.64,1.36-1.81-2,.58-3.41,1.89-4.77Z" fill="#742017"/><path d="M1015.94,139.93c-.79,1.1.09,3.28-1.78,3.53-2.17.29-2.27-1.74-2.71-3.22,0-.16.06-.33.11-.48.71-2-.51-5.66,2.56-5.51C1017.41,134.42,1015.44,137.93,1015.94,139.93Z" fill="#742017"/><path d="M999.3,144.18c.44,1.21,1.16,2.71-.1,3.53s-2.79-.06-4.05-.83c-.38-.52-.77-1-1.13-1.57-.89-1.28-1.47-2.74-.12-3.9,1.56-1.35,2.59.22,3.64,1.12C998.15,143.05,998.71,143.63,999.3,144.18Z" fill="#742017"/><path d="M1032.07,145.37c-1.12.49-1.31,2.89-2.72,2.07-1.64-.95-1.09-3.12-1.17-4.84.59-1.59.78-4.44,3-3.47C1033.89,140.28,1032,143.21,1032.07,145.37Z" fill="#742017"/><path d="M985.22,161.41c1.19.42,2.83.73,2.57,2.3-.33,2-2.45,1.51-3.83,2.06-1.48-.63-4.25-.13-3.7-2.75S983.46,161.72,985.22,161.41Z" fill="#742017"/><path d="M994.83,172.8c2.5-2.24,5.2-2,8.53-.74-2.61,2.78-5.18,3.87-8.5,2.63Z" fill="#742017"/><path d="M1014.85,160.7a4.71,4.71,0,0,1-.9-.69c-2.4-3.12-.63-5.95.78-8.7.42-.83,1.7-.59,2.13.07,1.74,2.59-.15,5-.62,7.51C1016.11,159.56,1015.33,160.1,1014.85,160.7Z" fill="#742017"/><path d="M1026.8,181.83c-.6.95-1.38,1.58-2.47,1-2.51-1.29-5.07-2.71-5.39-5.87a1.54,1.54,0,0,1,2.27-1.14C1023.52,177.39,1025.88,179,1026.8,181.83Z" fill="#742017"/><path d="M1028.27,163.23c.93.42,3.09-.1,2.56,1.32-1,2.66-3.85,2.52-6.25,2.57-1.18,0-2.81-.69-2.29-1.86C1023.4,162.73,1026,163.15,1028.27,163.23Z" fill="#742017"/><path d="M999.6,158.3c3.63-2,5.12.69,6.5,3.18.4.72.14,2.61-1,2.13-2.41-1-5.71-1.51-5.44-5.36Z" fill="#742017"/><path d="M1007.63,187.17c-.09-.66-.42-1.4-.23-2,.59-1.7-.32-4.29,2.49-4.75a1.23,1.23,0,0,1,1.37,1.61c-.51,2.15.4,5.46-3.68,5.05Z" fill="#742017"/></g><g id="Virion_5-3" data-name="Virion 5"><path d="M896.8,125.58c-2.77-5.22-2.69-5.43,2.13-5.36.38.52.78,1,1.15,1.55,1.2,1.65,3.54,3.58,2,5.39C900.17,129.4,898.55,126.34,896.8,125.58Z" fill="#742017"/><path d="M893.51,87.53c-5.07,1.35-5.17,1.26-4-4a7,7,0,0,1,.86-.44c2-.7,4-3.54,5.91-.94S894.5,85.72,893.51,87.53Z" fill="#742017"/><path d="M876,78c-.91,1-.64,3.16-2.67,3s-2.06-2.16-2.57-3.62c.64-2-.86-5.59,2.14-5.56C876.1,71.87,875.62,75.56,876,78Z" fill="#742017"/><path d="M842.74,99c1.43.32,3.32.7,3,2.46-.43,2.18-2.86,1.56-4.46,2.08-.16,0-.33-.06-.49-.11-1.86-.61-5.25.34-4.93-2.66.3-2.83,3.47-1.43,5.43-1.72A10.36,10.36,0,0,1,842.74,99Z" fill="#742017"/><path d="M900.93,107.21c-1-.27-2.55.2-2.81-1.37-.3-1.8,1.27-2.47,2.41-3.36a14.32,14.32,0,0,1,1.92-.34c1.81-.06,4-.24,4.27,2.13s-2.18,2.34-3.84,2.73A17.89,17.89,0,0,1,900.93,107.21Z" fill="#742017"/><path d="M853.1,83.13c.54,2,2.68,3.68,1.56,6.2-2.22-.2-3-2.37-4.66-3.23a7.89,7.89,0,0,1-.39-.9c-.57-1.85-3.09-4.14-.59-5.49C851,78.65,851.68,82,853.1,83.13Z" fill="#742017"/><path d="M856.93,135.22a4.1,4.1,0,0,0,.4-.29c1.34-1.08,2.29-3.44,4.38-2.42,2.8,1.36,0,3.47.22,5.24-.14.09-.27.19-.4.29-1.34,1-2.14,3.53-4.27,2.44C854.73,139.17,856.86,137,856.93,135.22Z" fill="#742017"/><path d="M843,120.08c1.63.39,4-1.19,4.86.89,1,2.36-1.85,2.58-3,3.76a3.91,3.91,0,0,1-.48,0c-2.09-.12-5.22,1.72-5.94-1.1C837.84,121.26,841.64,121.6,843,120.08Z" fill="#742017"/><path d="M880.14,137.94c0-1.57-1.18-3.72.52-4.56,2.14-1.06,2.77,1.82,4.27,2.65.39,1.81,2.16,4.14-.25,5.27C882,142.58,881.68,139.09,880.14,137.94Z" fill="#742017"/><path d="M860.79,124.11a15,15,0,0,1,1.45-7.11c.46-.86,1.2-1.87,2.24-1.64a2.16,2.16,0,0,1,1.47,2.72c-.52,2.81-.48,6-3.94,7.16Z" fill="#742017"/><path d="M883.25,93c-.82,1-1.58,2.08-2.45,3s-1.08,3.33-2.89,2.36-1.32-3.28-.63-4.87c.55-1.27,1.85-2.22,2.81-3.31C882.41,89.69,883.55,90.52,883.25,93Z" fill="#742017"/><path d="M891.16,104.06c-2.18,3.06-5,4-10.43,3.32a9.46,9.46,0,0,1,10.2-4.25A2.28,2.28,0,0,0,891.16,104.06Z" fill="#742017"/><path d="M853,103.35a8.19,8.19,0,0,1,2-.24c2,.22,4.4-.87,5.88,1.38a1.85,1.85,0,0,1-.39,1.72c-1.86,1.54-4.06.82-6.13.6A9.6,9.6,0,0,1,852,106C851.68,104.86,852.45,104.15,853,103.35Z" fill="#742017"/><path d="M883.59,121.87c-.07,1.11-.82,1.52-2.19.61a5.83,5.83,0,0,1-1.45-1.35c-1.51-2.07-4.28-3.48-3.8-6.59.11-.73,1.23-.9,2.14-.65C880,114.35,883.58,119.28,883.59,121.87Z" fill="#742017"/><path d="M865,89.17c3.11.54,5.55,4.84,4,7.07-1.13,1.6-2,.45-2.67-.48a8.2,8.2,0,0,1-1.26-6.65Z" fill="#742017"/></g><g id="Virion_4-3" data-name="Virion 4"><path d="M267.27,545.23c1.5-1,2.18-4,4.57-2.57,2.94,1.73-.32,4.06.05,6.13-1.85,1.69-2.05,6.56-5.55,4.68-3.24-1.74.3-4.8.69-7.3C267.08,545.85,267.19,545.54,267.27,545.23Z" fill="#742017"/><path d="M329.48,542.53c-.72-2.81-1.25-5.49,3.28-4.29,1.3,1.68,2.71,3.28,3.87,5,.85,1.29,2.28,3,.38,4.26-1.62,1.12-3.07-.15-4.23-1.4S330.58,543.74,329.48,542.53Z" fill="#742017"/><path d="M288.91,555c.32-2-.15-5.11,2.84-4.86,3.23.28,1.91,3.66,2.52,5.71,0,.49-.08,1-.13,1.48-.17,1.77.1,4.17-2.35,4.22s-2.35-2.34-2.67-4.08C289,556.67,289,555.83,288.91,555Z" fill="#742017"/><path d="M332.94,481.92c-.56.36-1.11.73-1.68,1.06-1.14.67-2.37,1.62-3.62.44s-.24-2.43.46-3.53c.52-.84,1.11-1.65,1.67-2.47,2.05-.93,4.07-4.58,6.07-2.28C338.19,477.83,334,479.61,332.94,481.92Z" fill="#742017"/><path d="M305.52,464.41a6.34,6.34,0,0,1,0,1.45c-.46,1.73.37,4.58-2.25,4.65-2.13.05-2-2.47-2.37-4.2a17.53,17.53,0,0,0-1-2.73c.55-1.73,0-4.54,2.88-4.28S304.67,462.63,305.52,464.41Z" fill="#742017"/><path d="M341.88,505.11c-1.45-.38-3.69.56-4.11-1.54s1.91-2.65,3.3-3.63a4.1,4.1,0,0,1,.5,0c2.33.54,6.35-1.62,6.64,1.88C348.46,504.91,344.21,504.25,341.88,505.11Z" fill="#742017"/><path d="M269,473c.61,1.45,2.5,3.16,1.28,4.37-1.87,1.86-3.52-.52-5.19-1.37-.38-.53-.77-1.05-1.15-1.57-1-1.39-3-2.86-.9-4.53,1.73-1.4,2.87.59,4.08,1.56C267.77,472,268.38,472.49,269,473Z" fill="#742017"/><path d="M254,526c1.4,0,3.2-1.08,4,.67,1.06,2.18-1.63,3-2.2,4.59-.45.19-.9.4-1.35.58-1.64.66-3.7,2-4.89.2-1.47-2.28,1-3.35,2.47-4.55C252.69,527,253.34,526.51,254,526Z" fill="#742017"/><path d="M339.76,525.17a7.74,7.74,0,0,1-1-.21c-1.57-.55-3.76-1.12-3.51-2.93.31-2.16,2.64-1.2,4.17-1.35.49,0,1,0,1.49,0,1.93.73,5.76-.62,5.4,2.44C345.94,526.42,342.07,524.58,339.76,525.17Z" fill="#742017"/><path d="M311,553.75c.46-1.57-1.68-3.82.87-4.73,2.28-.8,2.73,1.83,4,2.89-.13,2.13,2.38,5.1-.22,6.21C312.48,559.46,312.85,555,311,553.75Z" fill="#742017"/><path d="M251.48,500.76a5.81,5.81,0,0,1,.86.44c1.38,1,4.55.77,3.43,3.61-.88,2.25-3.07.75-4.72.56-1.41-.58-3.75-.29-3.71-2.4C247.39,500.38,249.9,501.18,251.48,500.76Z" fill="#742017"/><path d="M297.57,512c-2.37-.13-5-.5-4.32-3.05.73-2.78,1.43-7,5.05-7s5,4.39,5.2,6.92C303.77,512.31,299.54,511.1,297.57,512Z" fill="#742017"/><path d="M272.81,524c-.39-.2-1.19-.35-1.4-.78a2.09,2.09,0,0,1,.3-1.76,15.35,15.35,0,0,1,8.4-5.58,1.54,1.54,0,0,1,2,.86,2,2,0,0,1-.6,2.24C279.07,521.15,276.05,522.44,272.81,524Z" fill="#742017"/><path d="M297.47,530.06c-.92,2.4,1,6.74-2.65,6.49-3.15-.22-1.57-4.39-1.7-6.82-.12-2.2.28-5.66,2.7-5.38C298.72,524.68,296.85,528.15,297.47,530.06Z" fill="#742017"/><path d="M321.76,509.05c-1.29-.44-3.93.62-3.54-1.3.69-3.39,4.45-2.64,6.95-3.45,1.29-.41,3.16.31,2.69,1.85C327,509,324.13,508.81,321.76,509.05Z" fill="#742017"/><path d="M313.93,485.18a17.13,17.13,0,0,1-.75,1.65c-1.25,2.24-1.67,5.12-4.56,6.1-.68.23-1.53-.13-1.47-.88a15.61,15.61,0,0,1,3.33-8.12,1.8,1.8,0,0,1,2.15-.82A1.93,1.93,0,0,1,313.93,485.18Z" fill="#742017"/><path d="M270.39,497.39c4.21-1.07,7.06.57,9.86,2.24a1.75,1.75,0,0,1,.77,2.54c-.56.91-1.34.64-2.16.32C276,501.38,272.77,500.92,270.39,497.39Z" fill="#742017"/><path d="M313.23,521.91c2.27,1.62,4.69,3.61,5.68,6.7.43,1.31-1,1.78-1.87,1.31a12.07,12.07,0,0,1-5.86-6.36C310.7,522.3,311.59,521.8,313.23,521.91Z" fill="#742017"/><path d="M287.83,482c.37-1.28-.17-3.45,1.43-2.72,3,1.37,2.65,5,3.7,7.61.36.93-.12,2.54-1.19,2.1C288.65,487.71,288.67,484.44,287.83,482Z" fill="#742017"/></g><g id="Virion_3-2" data-name="Virion 3"><path d="M137.11,533.85l-4.18-2.79c1.64-1.73,3.56-.8,5.11-1.27,1.77,1.18,5.79.54,5.06,3.51C142.27,536.63,139.16,533.34,137.11,533.85Z" fill="#742017"/><path d="M136,515.36a7.09,7.09,0,0,1-1.93.41c-1.64-.12-4.09,1.3-4.7-.88-.53-1.89,2.3-1.86,3.42-3a11.94,11.94,0,0,0,1.9-.3c1.37-.41,3.07-1.44,3.86.31C139.5,514,137.25,514.49,136,515.36Z" fill="#742017"/><path d="M125.72,545.86a12.78,12.78,0,0,1-.64-1.86c-.27-1.35-1.57-3,.37-3.93s2.41,1,3.21,2.19l1.11,1.63c.11,1.44,1,3.26-.66,4.1C127.26,548.94,126.77,546.75,125.72,545.86Z" fill="#742017"/><path d="M99.58,511.44c.85,1.2,3.26,1.82,2.16,3.73-.92,1.62-2.89.6-4.41.56-.94-1.56-4.3-2-3.17-4.16C95.06,509.89,97.71,511.15,99.58,511.44Z" fill="#742017"/><path d="M120.23,504.1a7.29,7.29,0,0,1-2.09,3.95c-1.71-1.11-1.8-3-2.27-4.61.59-1.88.18-5.18,2.73-4.85S119.66,502.19,120.23,504.1Z" fill="#742017"/><path d="M107.16,544.33c1-.59,1.16-2.69,2.79-2.12,2,.7.91,2.78,1.4,4.18-1.32,1.46-2.13,4.68-4.35,3.62C104.54,548.83,107.53,546.31,107.16,544.33Z" fill="#742017"/><path d="M96.35,531.74c1.23.45,3.06-.79,3.72,1.19.56,1.68-1.22,2-2,2.91-.32,0-.64.06-1,0-1.66-.14-4.18.86-4.59-1.34S94.85,532.43,96.35,531.74Z" fill="#742017"/></g><g id="Virion_2-3" data-name="Virion 2"><path d="M122.3,308.24c-.33,1.52.22,3.6-2.23,3.82s-1.76-2.41-2.86-3.44c.14-2.49.22-5,.43-7.47a1.83,1.83,0,0,1,1.42-1.83c1.23-.23,1.74.62,2.22,1.56C122.48,303.22,121.86,305.8,122.3,308.24Z" fill="#742017"/><path d="M77.06,356.26c1.8-.24,4.3-.71,4.74,1.32.67,3.06-3.15,2-4.39,3.59-1.78.2-3.55.49-5.33.56a2.35,2.35,0,0,1-2.65-1.7c-.34-1.52.91-1.94,2-2.27C73.3,357.2,75.18,356.75,77.06,356.26Z" fill="#742017"/><path d="M160.72,327.33a2.14,2.14,0,0,1-.47.15c-1.95.14-4,3.11-5.72.48-1.47-2.23,1.64-3.16,2.4-4.84l.9-.35c2-.71,4.36-3.24,6-.9C166,324.88,161.76,325.44,160.72,327.33Z" fill="#742017"/><path d="M169.49,348.25c-2.45.06-6.12,2.56-7-.11s3.56-3.47,5.54-5.24a16.71,16.71,0,0,0,1.9-.26c1.3-.32,2.65-.6,3.4.83.84,1.59-.56,2.28-1.53,3.06C171.06,347.13,170.26,347.68,169.49,348.25Z" fill="#742017"/><path d="M83,331c.8.95,2.72,1.49,2,3-.89,1.84-2.89,1.72-4.69,1.59-2.08-1.24-6.44-1-5.56-4.17s4.41-1.1,6.84-.67C82.07,330.86,82.56,330.91,83,331Z" fill="#742017"/><path d="M86.13,381.15c1.41-.64,3-2.11,4.36-.6,1.82,2-.76,3.4-1.16,5.13-.71.66-1.36,1.39-2.12,2s-1.91,1.47-3.06.63c-1.33-1-1-2.24-.33-3.45S85.36,382.38,86.13,381.15Z" fill="#742017"/><path d="M128.42,400.94c-.23-1.78-1.09-4.18,1.2-4.76,2.95-.75,2.82,2.57,4,4.14a12.69,12.69,0,0,1,.32,1.91c0,1.25.54,2.86-1,3.44-1.8.71-2.51-.92-3.24-2.16C129.27,402.68,128.86,401.8,128.42,400.94Z" fill="#742017"/><path d="M167.49,371.4c-.74-.36-1.46-.76-2.22-1.08-1.3-.54-2.5-1.22-2.16-2.86.37-1.81,1.93-1.51,3.21-1.41a13.57,13.57,0,0,1,2.38.59,3.55,3.55,0,0,1,.43.23c1.43,1.07,4.24,1.48,3.16,4C171.39,372.91,169.17,371.66,167.49,371.4Z" fill="#742017"/><path d="M151,392.81c-.41-.72-.79-1.44-1.21-2.15-.71-1.2-1.29-2.53.12-3.48a2.38,2.38,0,0,1,3.12.65c.57.59,1.22,1.11,1.83,1.66.43,1.72,3.41,3.22,1.28,5C154.26,396.08,152.6,393.73,151,392.81Z" fill="#742017"/><path d="M105.69,397.36c.75-1.36.7-3.86,2.82-3.51,2.86.47,1.28,3.25,1.82,5a9.45,9.45,0,0,1-.32,1.42c-.62,1.66-1.16,3.85-3.44,3.22-1.95-.53-1.49-2.59-1.29-4.19C105.36,398.62,105.55,398,105.69,397.36Z" fill="#742017"/><path d="M98.41,314.61c-.1.66-.19,1.31-.3,2-.16,1.07.59,2.57-.68,3.13-1.55.69-2-1.38-3.25-1.78-.06-.31-.11-.64-.2-.95-.63-2.15-2.2-5.19-.12-6.28C96.68,309.22,96.64,313.47,98.41,314.61Z" fill="#742017"/><path d="M143.8,313.1c-1.8-.17-4.93,3.27-4.89-1.82a6.9,6.9,0,0,1,.61-.79c1.54-1.49,2.15-5.37,4.82-3.94C147.44,308.22,144.16,310.86,143.8,313.1Z" fill="#742017"/><path d="M140.59,362.15c3.51-2.48,6.48-1.28,9.35-1.11a2.05,2.05,0,0,1,2.16,2.21c-.06,2-1.63,1.86-2.89,1.72A19.15,19.15,0,0,1,140.59,362.15Z" fill="#742017"/><path d="M110,376.52c.68-1.81.43-4.69,3.2-5.25,1.41-.29,2.17,1.53,1.79,2.91-.59,2.13-.49,5-3.27,5.57C109.88,380.1,110.16,378.11,110,376.52Z" fill="#742017"/><path d="M128.34,351c-1.46-.12-3.43-.16-2.82-1.44,1.42-3,4.88-2.73,7.59-3.54,1.06-.31,3.1.07,2.67,1.19C134.47,350.67,130.6,349.72,128.34,351Z" fill="#742017"/><path d="M135.25,377.38c-.25,1.22.42,3.76-1,3.2-2.83-1.11-3.83-4.23-4.36-7.18-.22-1.17,0-2.8,1.47-2.55C135,371.47,134.69,374.78,135.25,377.38Z" fill="#742017"/><path d="M121.83,348.41c-5,1.8-7.31-.75-9.75-2.88-.63-.55-1.33-1.33-.55-2a2.45,2.45,0,0,1,2.25-.34C116.29,344.63,118.67,346.31,121.83,348.41Z" fill="#742017"/><path d="M137.61,326.45c.16,3.4-.25,6.53-3.64,8.5C132.16,329,133.4,326.24,137.61,326.45Z" fill="#742017"/><path d="M145.32,345.13c-1-.19-2.91.43-2.71-1.07.41-3.14,3.41-3.05,5.74-3.5,1.37-.26,3.05.18,2.63,1.9C150.28,345.32,147.56,344.88,145.32,345.13Z" fill="#742017"/><path d="M117.65,333c-2.47-.74-3.55-2.39-4.54-4.1-.74-1.27-1.76-2.72.2-3.77,1.68-.89,2.82.12,3.64,1.53C118.05,328.55,118.75,330.53,117.65,333Z" fill="#742017"/><path d="M126.27,360.67c-.38,1.57.11,3.5-1.59,3-3-.81-2.78-3.8-3.1-6.16-.13-1,.17-2.85,1.66-2.47C126.39,355.89,124.89,359.28,126.27,360.67Z" fill="#742017"/><path d="M106,352c-3,2.6-5.66,2.55-8.38,1.25a1.22,1.22,0,0,1-.26-2.09C100.26,349.06,102.91,350.15,106,352Z" fill="#742017"/></g><g id="Virion_1-3" data-name="Virion 1"><path d="M226,171.23c-1.95-1.23-6.08-.59-5.56-3.71.55-3.3,4.26-.8,6.42-1.56.26.2.51.42.79.6,1.94,1.3,6,1.63,4.9,4.54C231.41,174.16,228.25,171.41,226,171.23Z" fill="#742017"/><path d="M194.44,213.4c.18-2.09-3-4.51-.75-5.9,2.76-1.73,3.8,2.33,5.92,3.31.47,2.24,3.71,4.88,1.48,6.44C197.59,219.7,197,214.29,194.44,213.4Z" fill="#742017"/><path d="M168.19,101.29c-.34,2,.42,5.21-1.95,5.43-3.14.28-2.87-3.22-3.52-5.44.83-2.25-1.27-6.41,2-6.62C168.31,94.43,166.7,99.15,168.19,101.29Z" fill="#742017"/><path d="M141.14,211.07c.36-.32.74-.61,1.07-.95,1.1-1.13,2.08-3,3.91-2.1s.74,2.76.28,4.24a8.47,8.47,0,0,0-.18,1.43c-.26.2-.54.38-.79.6-1.62,1.4-2.68,5-5.26,3.26C137.31,215.64,140.51,213.25,141.14,211.07Z" fill="#742017"/><path d="M194.85,109.35c-.12.11-.26.21-.37.33-1.17,1.26-1.95,3.88-4,3-2.63-1.18-1.16-3.66-.61-5.67,1.68-2,3-5.77,6.08-4C198.82,104.72,194.94,107.11,194.85,109.35Z" fill="#742017"/><path d="M215.86,195.82l-1-1.1c-1.15-1.34-3.87-2.23-2.05-4.6,1.58-2.06,3.14-.14,4.63.66a5.92,5.92,0,0,0,1.4.39c.42.49.82,1,1.27,1.45,1.24,1.28,2.91,2.72,1.37,4.5-1.4,1.61-2.9-.25-4.32-.73C216.74,196.23,216.31,196,215.86,195.82Z" fill="#742017"/><path d="M120.24,194.06l.48-.12c1.65-.24,3.22-2.65,4.84-.88,2,2.15-.9,3.34-1.64,5-1.15.9-2.25,1.88-3.46,2.68s-2.54,2.06-3.84.5c-1.09-1.31-.45-2.77.63-3.94S119.24,195.12,120.24,194.06Z" fill="#742017"/><path d="M167.86,218.58c.94-2.07-1.3-6,2-6.22s2.2,4.09,3.42,6.2c-.07.82-.12,1.64-.21,2.46-.15,1.38-.45,2.75-2.2,2.75-1.43,0-1.79-1.23-2.14-2.36C168.47,220.47,168.16,219.53,167.86,218.58Z" fill="#742017"/><path d="M122,121.25c.84,1.57,3.92,2.47,2.29,4.7s-3.88-.35-5.88-.4c-.54-.38-1.09-.75-1.61-1.15-1.09-.86-3.06-1.39-2.11-3.29.8-1.6,2.57-1.18,4-.9A30.72,30.72,0,0,1,122,121.25Z" fill="#742017"/><path d="M109.43,168.84a2.53,2.53,0,0,1,.48.07c2,.68,5.36-1.31,5.88,1.72.56,3.27-3.54,1.82-5,3.35a2.55,2.55,0,0,1-.48,0c-2.07-.36-5.34,1.39-5.85-1.66S107.55,169.77,109.43,168.84Z" fill="#742017"/><path d="M225.6,149.28c-.65,0-1.3.05-1.95,0-1.35-.07-3.2.67-3.52-1.46-.28-1.88,1.35-2.34,2.73-2.86a13.06,13.06,0,0,0,1.29-.66,3.91,3.91,0,0,1,.48-.05c2,0,4.92-1.41,5.55,1.14C230.9,148.32,227.49,148.34,225.6,149.28Z" fill="#742017"/><path d="M215,127l-1.83.66c-1.34.47-2.9,1.48-3.91-.16-.77-1.25.23-2.43,1.21-3.38a12,12,0,0,0,1.17-1.54c.59-.22,1.2-.43,1.79-.68,1.47-.62,3.18-1.7,4.3.07s-.7,2.83-1.79,3.94C215.57,126.28,215.28,126.67,215,127Z" fill="#742017"/><path d="M110.5,143.33c1.38.93,4.06.86,3.47,3.4-.55,2.32-2.78,1.81-4.55,1.78-1.62-.68-4.09-.87-3.76-3.22C106.05,142.49,108.59,143.32,110.5,143.33Z" fill="#742017"/><path d="M140.85,107.08c-.06,1.62,1.9,3.62-.16,4.79-2.33,1.33-3.19-1.24-4.47-2.5a2.63,2.63,0,0,1-.06-.48c.12-1.89-2.08-4.53.9-5.48C139.62,102.6,139.44,106,140.85,107.08Z" fill="#742017"/><path d="M190.86,156.86a2.26,2.26,0,0,1-1.78,2.12c-1.59.43-3.18.86-4.79,1.14s-4,2.21-4.76-.2c-.84-2.59,2-3.17,3.94-4a10.2,10.2,0,0,1,5.31-.85A2.33,2.33,0,0,1,190.86,156.86Z" fill="#742017"/><path d="M160.17,154.6c-4.6,1.69-7.69-.59-10.79-2.74-1-.68-1.86-1.58-.93-2.85.67-.93,1.59-.89,2.6-.3C154,150.46,158.07,150.55,160.17,154.6Z" fill="#742017"/><path d="M149.19,183.11c-1.75,2.91-3.42,5.73-6.27,7.54a1.13,1.13,0,0,1-1.88-.72,5.81,5.81,0,0,1,1.34-5c1.27-1.77,2.69-3.4,4.93-3.71C148.43,181,148.86,182.14,149.19,183.11Z" fill="#742017"/><path d="M203.71,156.06c-1.3-.57-4,1.2-4.39-1.19s2.28-2.69,4.19-3.09c.48-.11.93-.37,1.41-.43,1.91-.22,4.54-1,5,1.58.49,3-2.3,3-4.43,3.13C205,156.1,204.45,156.06,203.71,156.06Z" fill="#742017"/><path d="M200.94,132.12c.32,3.07-4.4,8.27-7.25,7.86-1.9-.26-2-1.61-1.06-2.87,2.06-2.81,4.32-5.44,8.37-4.94Z" fill="#742017"/><path d="M188.89,191.83c.13,1.31-.27,2.17-1.42,2.37-1.54.26-6.14-5.28-6.14-7.27,0-1.48.91-2.07,2.2-2.08C185.34,184.83,188.81,189.52,188.89,191.83Z" fill="#742017"/><path d="M161.07,168.64c-1.36,2.26-2,5.71-5.72,6.31-1.7.28-1.7-1.41-1.37-2.47.88-2.81,1.73-5.83,5.26-6.46C160.78,165.75,161.27,166.79,161.07,168.64Z" fill="#742017"/><path d="M179.25,175c-.15.42-.21,1.42-.73,1.81-.81.59-1.55-.19-2-.88-1.43-2.2-2.84-4.42-4.16-6.69a2.14,2.14,0,0,1,.13-2.75c1.18-1,2.21,0,2.91.88C177.17,169.47,179.05,171.6,179.25,175Z" fill="#742017"/><path d="M204.21,175c0,1.63-.66,2.08-1.88,2.08-2.35,0-7.46-3.43-7.25-5,.18-1.39,1.23-2.23,2.41-1.74C200.12,171.37,203.31,171.88,204.21,175Z" fill="#742017"/><path d="M168.07,193.87c-.14,2,.62,5.76-2.35,5.72-2.67,0-1.47-3.78-1.77-5.93a5.76,5.76,0,0,1,.08-1.49c.2-1.69-.5-4.18,2.3-4,2.52.12,1.51,2.45,1.73,3.93A15,15,0,0,1,168.07,193.87Z" fill="#742017"/><path d="M171.25,143.86c-.59,2.09.76,5.85-2,5.81-3.12,0-2.07-3.78-2.1-6,0-2,.07-5.26,2.3-5.13C172,138.67,170.86,141.93,171.25,143.86Z" fill="#742017"/><path d="M161.26,122.84c-.27,1.57.34,3.65-1.72,3.2-2.89-.63-3.17-3.48-3.6-5.87-.21-1.22-.3-3.26,1.59-2.85C160.42,118,160.53,120.88,161.26,122.84Z" fill="#742017"/><path d="M131.92,168.11c-1.4-.18-3.18.24-2.81-1.52.62-3,3.46-3.09,5.82-3.52,1.34-.24,3.23.09,3,1.68C137.4,168.4,133.61,166.7,131.92,168.11Z" fill="#742017"/><path d="M176.87,124.5c.49-2.3,0-5.26,3.48-5.61,1.46-.15,1.94,1.23,1.66,2.44-.57,2.49-.6,5.76-3.57,6.45C176.18,128.3,177.37,125.69,176.87,124.5Z" fill="#742017"/><path d="M134.85,135.45a16,16,0,0,1,6.69,5.54.9.9,0,0,1,.12.81,1.75,1.75,0,0,1-2.13.68c-2.72-.79-5.36-1.7-6.48-4.65a1.75,1.75,0,0,1,.8-2.14A3.41,3.41,0,0,1,134.85,135.45Z" fill="#742017"/></g></g><g id="Main_virion" data-name="Main virion"><circle id="Light_interior" data-name="Light interior" cx="583.5" cy="311.5" r="182.5" fill="#dfc2f0"/><path id="Dark_interior" data-name="Dark interior" d="M766,311.5c0,50.21-33,122.5-70,138.5,0,0-26-66-38-76,0,0-118.43-123.83-136-143l-72-39c35-42,77-65,133.5-63C684.23,132.57,766,210.71,766,311.5Z" fill="#775392"/><path id="Lighter_envelope-2" data-name="Lighter envelope" d="M780,276.35l2,11c-2.22.51-4.47.94-6.65,1.58a4.53,4.53,0,0,0-3.63,4.64c0,2.64,1.81,3.86,3.91,4.4a60.75,60.75,0,0,0,7.28,1q.11,6.94.19,13.9c-2,1.66-4.37,1-6.62,1.1-1.21,0-2.64.16-2.88,1.35-.32,1.56,1.17,2.15,2.44,2.56,2.32.75,4.65,1.44,7,2.16q-.51,5.83-1,11.68a100.56,100.56,0,0,0-10.81-.53c-2.66.14-5.24,1.25-5.39,4.66-.12,3,1.87,4.52,4.39,5.17,3.47.89,7,1.43,10.56,2.13l-3.87,19.94c-.93.24-1.86.49-2.8.72-2.41.57-6.3.05-6.75,2.31-.58,2.94,3.58,2.82,5.54,4.22.53.38,1.1.7,1.65,1.05q-2.4,6.75-4.82,13.49a67.22,67.22,0,0,0-8.27-1.45c-2.31-.14-4.79.32-5.51,3.19a5.13,5.13,0,0,0,2.48,6c2,1.23,4,2.3,6,3.45-1.39,5.28-4.77,9.64-6.78,14.63-2.41.61-5.72-2.12-7.17.86-1.25,2.55,2.44,3.85,3.37,6a86.24,86.24,0,0,0-8.34,12.52c-2.73-.33-4.62-2.4-7.05-3.39s-4.56-1.28-6.26.88-.74,4.45.77,6.29c1.65,2,3.58,3.78,5.4,5.66l-11.65,12.72c-2.22-1.36-4.36-2.86-6.67-4-3-1.52-4.2-.41-4,2.88s2.62,5.58,3.54,8.52l-12.7,10.5c-2.74-3.3-5.34-6.74-8.28-9.86-1.83-1.95-4.33-2.57-6.7-.68-2.19,1.74-2.15,4.08-.88,6.27,2.14,3.72,4.5,7.31,6.76,11l-14.87,10-8.33-7.87c-1.78,4.47,2,7.82,1.47,11.73l-10.26,4.79c-1.33-2.83-2.47-5.77-4.05-8.45-1.09-1.85-2.8-3.51-5.34-2.47s-3.35,3.18-2.84,5.69c.66,3.22,1.6,6.39,2.42,9.58l-15.52,5.54c-3-3.52-4.28-8.45-8.83-11.21-1.69,4.93,2.3,8.91,1.22,13.34l-12,2.65c-.68-3.21-1.15-6.48-2.11-9.6a4.94,4.94,0,0,0-5.68-3.77c-3,.41-4.09,2.57-4.1,5.3,0,3.28-.32,6.6.76,9.81l-19.56,2c-2.7-3-1.5-7.57-4.1-11.24-2.7,3.7-2.52,7.85-4.12,11.32l-13.38-.29c-.18-3.61.53-7.23-.22-10.85-.62-3-1.79-5.63-5.21-5.57s-4.71,2.73-5.1,5.7c-.43,3.26-.58,6.55-.85,9.82l-16.81-2.87c-.55-4,1-7.95,0-11.89-.27-1,.31-2.68-1.33-2.8-1.33-.09-1.69,1.31-2.19,2.35-1.73,3.55-3.49,7.08-5.24,10.62l-11.6-3.38a76.72,76.72,0,0,0,2.13-7.64c.59-3.3,1.18-7-3.17-8.28-4.07-1.17-6.12,1.61-7.51,4.9-.9,2.12-1.61,4.33-2.4,6.5-6.53-1.3-12.16-4.83-18.17-7.42,1.07-3.09,2.25-6.16,3.16-9.3.35-1.2.45-2.83-1.23-3.34-1.33-.41-1.91.71-2.66,1.67-2,2.57-4.26,5-6.41,7.46L470,480.91c1.6-3.21,3.45-6.34,4.73-9.68.88-2.32,1.06-5-1.63-6.62-2.86-1.7-5.2-.34-6.93,1.87-1.92,2.46-3.47,5.21-5.19,7.83-5.32-3.25-9.86-7.51-14.56-11.54a26.21,26.21,0,0,1,4.6-8.13c.79-.88,1.68-2,.82-3.05-1-1.23-2.26-.54-3.46.29-2.81,1.94-5.12,4.7-8.7,5.41-2.81-4.05-6.49-7.3-9.92-10.78,2.54-2.35,5.23-4.56,7.57-7.1,1.63-1.76,2.5-4.07.77-6.34s-4.05-2.41-6.67-1.38c-3.49,1.38-5.86,4.3-9,6.16l-10.08-13.62c1.24-2.78,3.66-4.62,5.59-6.85.83-1,1.48-1.94.61-3-.71-.87-1.8-.43-2.73,0l-7.56,3.4-6.2-11c2-1.11,4.1-2.14,6.07-3.33,2.75-1.65,5.85-3.41,4.13-7.33s-5.21-2.8-8.24-2c-2.38.63-4.66,1.68-7,2.54q-3.23-7.64-6.43-15.26c2.32-1.2,4.68-2.35,7-3.63.83-.46,1.76-1.12,1.25-2.35-.39-.93-1.22-.9-2.08-.88-2.8.09-5.6.12-8.39.17l-3.78-13.91c3.05-1.21,6.13-2.33,9.14-3.64,2.13-.92,3.62-2.53,3-5-.68-2.7-2.86-3.6-5.38-3.2-3.07.48-6.08,1.3-9.12,2l-2-13.81c3.24-1.57,7.1-1.36,10.15-3.44,1-.71,2.42-1.49,2.15-3s-1.76-1.56-3.11-1.68c-3.43-.32-6.84-.77-10.26-1.17q-.36-7.68-.71-15.37c4.25-.42,8.51-.75,12.74-1.28,2.37-.3,3.93-1.67,4-4.24s-1.56-3.67-3.91-4.24c-4.07-1-8.18-.67-12.28-.74q.59-7.92,1.16-15.84c3.18-2,6.89-.31,10.11-1.49,1.26-.46,3.69.32,3.69-2.27,0-2.08-1.84-1.95-3.15-2.47-3-1.22-6-2.48-9.07-3.72L385.16,260c3.69.76,7.36,1.61,11.08,2.23,2.45.41,4.85-.2,5.55-2.89.65-2.53-1.32-4-3.33-4.85-3.46-1.5-7-2.77-10.54-4.14q3.68-9.47,7.33-18.94c2,.65,3.86,1.74,6.05,1.71.94,0,2.11.33,2.57-.76.54-1.27-.29-2-1.4-2.66-1.8-1.07-3.48-2.33-5.22-3.51L404.51,212c3.16.58,5.48,2.91,8.41,4,2.48,1,4.94,1.57,6.62-1,1.78-2.76.38-5.09-1.83-6.88-2.43-2-5-3.71-7.54-5.55l9.36-13.34c2.35.7,4.75,1.27,7,2.16,1.42.55,2.94,1.59,4.06.23,1.33-1.62-.3-3-1.16-4.36-1.24-1.93-3.31-3.29-3.92-5.66l9.66-10c1.88,1.84,3.65,3.79,5.66,5.47s4.46,2.38,6.72.39,2-4.4.61-6.71c-1.54-2.51-3.3-4.88-5-7.31l14.48-12.71c2.64.34,4.39,2.08,6.19,3.83,1.25,1.21,2.59,3,4.64,1.64,2.43-1.63.68-3.6-.08-5.25a55.1,55.1,0,0,0-3.27-5.46l13.31-8.66c2,2.81,3.87,5.7,6,8.41,1.57,2,3.73,3,6,1.25s1.53-3.75.37-5.77c-1.55-2.71-3.65-5.13-4.39-8.28L502.93,125c1.57,1.43,3.15,2.84,4.7,4.28.68.64,1.1,1.87,2.27,1.46,1.35-.48,1.13-1.85,1.2-3,.12-2.07-1.13-4.16.1-6.21l12.15-3.92a84.64,84.64,0,0,0,3.26,9.35c1.2,2.5,3.4,4.26,6.51,3.24,2.85-.95,3.55-3.36,3.25-6-.37-3.29-1-6.55-1.47-9.82l13.3-2.4c1.35,2.65,2.61,5.36,4.1,7.94.64,1.11,1.7,2.27,3.25,1.62,1.19-.5,1.42-1.65,1.43-2.93,0-2.65.21-5.3.33-8l11.85-.83c1.15,3.47.39,7.31,2,10.69,1,2,2.24,3.88,4.82,3.56s4-2.29,4.09-4.84c.14-3.31,0-6.62,0-9.93l17,.61a7.63,7.63,0,0,1,.77,1.23c.91,2.23-1.28,6.3,2.19,6.64s2.53-4.17,3.92-6.31a1.78,1.78,0,0,0,.12-.48l11.78,1.33a60.28,60.28,0,0,0-.76,7.29c0,2.59,1.08,5,4,5.5,2.62.5,4.47-1.07,5.51-3.25a68.35,68.35,0,0,0,2.48-6.91c6.39.84,12.35,3.29,18.55,4.86.37,3.31-.69,8,2.65,9.21,2.87,1,3.52-4.08,5.71-6l15.12,6.27c-.93,2.63-2,5.24-2.77,7.92a4.64,4.64,0,0,0,2.39,5.89,4.57,4.57,0,0,0,6.2-1.43,67.71,67.71,0,0,0,4-6.78l15.5,9.31c-.18,2-1.47,4.3,1,5.72,2.13,1.24,3.57-.67,5.2-1.57l11.45,9c-1.4,2.61-3,5.15-4.14,7.86-.87,2-1.3,4.18.86,5.85s4,.88,6-.29c2.42-1.44,3.78-4.23,6.61-5.11l13.22,13.92a2.54,2.54,0,0,0-.17.46c-.21,2.68-4.47,5-2.14,7.31,1.78,1.78,4.47-1.82,7.07-1.94l9.21,12.91c-2.32,2.6-5.34,4.57-7,7.73-1,1.87-1.44,3.91.09,5.58s3.44,1.49,5.55.78c2.84-1,4.61-3.71,7.64-4.23l8.44,15.31c-.59.77-1.23,1.51-1.75,2.32-.84,1.31-2.37,2.59-1.09,4.31,1.07,1.43,2.59.91,4,.42a8.88,8.88,0,0,1,1.88-.25q2.49,6.19,5,12.38c-2.1,1.85-4.27,3.63-6.28,5.57-1.34,1.31-2.26,3-1.28,4.89s2.81,2.27,4.71,1.86c2.1-.46,4.14-1.15,6.2-1.74q2.17,8.39,4.34,16.77c-.49,2.28-4.76,1.83-3.84,4.81C775.86,276.92,778.39,275.68,780,276.35Zm-56,142.55-.12.06c4.18-5,8.49-10.52,11.26-16.77C736,400,737,399,739,395a30.37,30.37,0,0,0,1.9-2.92c14.06-28.28,18-58.71,17.73-89.7A167.74,167.74,0,0,0,748,246.3c-11.33-31-29.72-56.91-55.62-77.06-45.92-35.72-97.51-46.3-153.9-32-28.63,7.26-53.62,21.47-75.05,41.84a186.38,186.38,0,0,0-33.69,43.71c-20.71,36.57-27.9,75.59-21.19,117a187.52,187.52,0,0,0,26.73,70.5c2.07,3.28,3.42,7.37,7.63,8.89l1.1,1.45a4.29,4.29,0,0,0,1.93,3.49c.94,2.94,2.9,5.2,5,7.33,4.22,4.26,8.36,8.58,12.69,12.73A165.67,165.67,0,0,0,535.76,485c19.29,5.24,38.92,8.1,59.14,6.15a206.13,206.13,0,0,0,39.1-7.23c2.76-.71,5.56-1.34,8-2.95,14.1-4.51,27.3-10.78,39-19.94l1.18-1.17.23.1,1.56-1.53.09-.3c8.72-3.72,14.93-9.8,20.9-17.13.54-.57,4.49-4.43,5-5,6-5,6-6,11-13a15.85,15.85,0,0,0,1.54-2C723,420.27,723.47,419.58,723.94,418.9Z" fill="#b4dbe5"/><g id="Spikes-2" data-name="Spikes"><path d="M766.37,230.3a8.88,8.88,0,0,0-1.88.25c-1.44.49-3,1-4-.42-1.28-1.72.25-3,1.09-4.31.52-.81,1.16-1.55,1.75-2.32q9.33-9,18.65-18a67.4,67.4,0,0,1,13.43-10.26A28.11,28.11,0,0,1,812.71,192c7,.7,10.31,6.74,7.16,13-3,6.08-8.68,9-14.53,11.53-10.55,4.51-21.46,8-32.4,11.46C770.73,228.7,768.56,229.53,766.37,230.3Z" fill="#742017"/><path d="M780,276.35c-1.57-.67-4.1.57-4.75-1.51-.92-3,3.35-2.53,3.84-4.81a214,214,0,0,1,31.68-15.6c6.41-2.5,13-4.06,19.94-2.45,3.82.89,6.91,2.67,7.88,6.69s-1.14,7.19-4.19,9.45c-7.12,5.29-15.74,5.69-24.08,7C800.21,276.68,790.05,275.5,780,276.35Z" fill="#742017"/><path d="M719.49,459.63c-.92-2.94-3.37-5.2-3.54-8.52s1.07-4.4,4-2.88c2.31,1.18,4.45,2.68,6.67,4,6.79,5.63,14.56,9.84,21.75,14.9,5.17,3.64,10.34,7.29,14.2,12.4s4,9.28.71,13.14c-2.89,3.39-7.51,4-12.79,1.35-5.91-2.94-10.45-7.52-14.75-12.44C729.76,474.72,725.1,466.82,719.49,459.63Z" fill="#742017"/><path d="M531.49,508.17c1.75-3.54,3.51-7.07,5.24-10.62.5-1,.86-2.44,2.19-2.35,1.64.12,1.06,1.81,1.33,2.8,1.09,3.94-.5,7.92,0,11.89-.39,13.78-.42,27.61-3.37,41.16-1.92,8.78-7.3,11.93-14.74,9-4.43-1.74-6.88-7.28-5.87-13.51,1.15-7.13,3.93-13.71,6.94-20.21C526,520.29,528.75,514.23,531.49,508.17Z" fill="#742017"/><path d="M581.87,514c1.6-3.47,1.42-7.62,4.12-11.32,2.6,3.67,1.4,8.22,4.1,11.24,3.15,12.06,7,23.94,9.31,36.22a14.93,14.93,0,0,1-1.18,10.19c-4,7.46-12.07,8-16.83,1.07-4-5.9-3.78-12.63-3.12-19.29C579.21,532.66,579.55,523.17,581.87,514Z" fill="#742017"/><path d="M739.4,185.42c-2.6.12-5.29,3.72-7.07,1.94-2.33-2.35,1.93-4.63,2.14-7.31a2.54,2.54,0,0,1,.17-.46c3.69-4.9,7.47-9.73,11.05-14.7a118,118,0,0,1,15-17.28c2.59-2.41,5.37-4.51,8.85-5.33,7.22-1.7,12.32,3.71,9.94,10.73-2,5.78-5.78,10.41-10.37,14.36-7,6-15,10.37-23.15,14.5C743.72,183,741.57,184.23,739.4,185.42Z" fill="#742017"/><path d="M774.5,371.41c-.55-.35-1.12-.67-1.65-1.05-2-1.4-6.12-1.28-5.54-4.22.45-2.26,4.34-1.74,6.75-2.31.94-.23,1.87-.48,2.8-.72,10.3-.1,20.59-.22,30.88-.28a32.87,32.87,0,0,1,14.09,2.66c4.59,2.11,6.87,6.19,6.08,10.34-.75,3.94-4.67,6.85-9.58,7.29-10.79.95-20.62-2.63-30.42-6.37C783.42,375,779,373.19,774.5,371.41Z" fill="#742017"/><path d="M753.79,417.59c-.93-2.19-4.62-3.49-3.37-6,1.45-3,4.76-.25,7.17-.86,11.21,4.16,22.65,7.77,33.38,13.19a35.31,35.31,0,0,1,8.32,5.44c3.42,3.18,5.5,6.93,3.1,11.53-2.32,4.43-6.59,5.41-11.14,4.76a26.89,26.89,0,0,1-11.74-5.22c-7.48-5.33-13.81-12-20.53-18.15C757.27,420.67,755.52,419.14,753.79,417.59Z" fill="#742017"/><path d="M700.66,148.38c-1.63.9-3.07,2.81-5.2,1.57-2.44-1.42-1.15-3.72-1-5.72a194.31,194.31,0,0,1,14.3-30.67c2.8-4.77,6.05-9.21,11.1-11.87,3.36-1.77,6.87-2.87,10.25-.11,3.56,2.89,3.36,6.6,1.86,10.43-3.3,8.44-9.7,14.63-15.68,21C711.35,138.39,705.9,143.28,700.66,148.38Z" fill="#742017"/><path d="M676,490.64c.58-3.91-3.25-7.26-1.47-11.73l8.33,7.87c5.78,6.64,11.68,13.18,17.3,20,3.93,4.73,7.47,9.79,9.28,15.81a9.88,9.88,0,0,1-5.28,12.07c-4,2-8.21.95-11.49-3.05a30.71,30.71,0,0,1-5-9.17C683.85,511.78,679.88,501.22,676,490.64Z" fill="#742017"/><path d="M632.76,507.45c1.08-4.43-2.91-8.41-1.22-13.34,4.55,2.76,5.82,7.69,8.83,11.21,4.89,9.23,9.9,18.4,14.64,27.71,2.25,4.41,4.47,8.9,4.07,14.17-.25,3.32-.76,6.35-4.23,7.77-3.8,1.56-7.46,1.43-10.7-1.45-3.79-3.37-5.55-7.84-6.32-12.67C636,529.74,634.44,518.59,632.76,507.45Z" fill="#742017"/><path d="M408.33,417.76l7.56-3.4c.93-.41,2-.85,2.73,0,.87,1.06.22,2-.61,3-1.93,2.23-4.35,4.07-5.59,6.85-7.23,6.87-14.42,13.8-21.71,20.61-3.28,3.08-6.81,5.83-11.19,7.32-4.6,1.56-7.69-.21-10.12-4s-2.08-7.26.75-10.53a37.88,37.88,0,0,1,13.8-9.68C392,424.38,400.19,421.13,408.33,417.76Z" fill="#742017"/><path d="M783,320.06c-2.33-.72-4.66-1.41-7-2.16-1.27-.41-2.76-1-2.44-2.56.24-1.19,1.67-1.31,2.88-1.35,2.25-.08,4.63.56,6.62-1.1,11.46-3.71,23.38-4.65,35.26-5.74A19,19,0,0,1,828,309c5.84,2.69,6.74,8.49,2,12.83a17.51,17.51,0,0,1-11.36,4.37c-10.84.55-21-2.87-31.28-5.26C785.91,320.59,784.45,320.35,783,320.06Z" fill="#742017"/><path d="M483.63,489.34c2.15-2.48,4.39-4.89,6.41-7.46.75-1,1.33-2.08,2.66-1.67,1.68.51,1.58,2.14,1.23,3.34-.91,3.14-2.09,6.21-3.16,9.3-2.92,9.14-5.77,18.3-8.78,27.41-1.52,4.57-3.36,9-7.06,12.41-3.16,2.87-6.77,4.68-10.8,2.15s-4.7-6.32-3.47-10.9c2.55-9.52,9.2-16.37,14.87-23.89Q479.57,494.67,483.63,489.34Z" fill="#742017"/><path d="M654,123.05c-2.19,1.88-2.84,7-5.71,6-3.34-1.16-2.28-5.9-2.65-9.21,1.45-8.68,2.76-17.39,4.39-26a32,32,0,0,1,7.37-15.61c2.42-2.73,5.38-4,8.93-2.8s4.65,4.31,4.85,7.91c.35,6.25-1.8,11.84-4.56,17.15C662.64,108.08,658.24,115.52,654,123.05Z" fill="#742017"/><path d="M557.31,110.64c-.12,2.66-.31,5.31-.33,8,0,1.28-.24,2.43-1.43,2.93-1.55.65-2.61-.51-3.25-1.62-1.49-2.58-2.75-5.29-4.1-7.94-2.79-8.18-5.62-16.34-8.35-24.54a37.42,37.42,0,0,1-2.35-11.7c0-3.74.77-7.48,4.82-9.09s7.18.16,9.83,3c4.49,4.8,5.64,10.93,5.76,17.1C558.07,94.7,557.54,102.68,557.31,110.64Z" fill="#742017"/><path d="M604.12,111a1.78,1.78,0,0,1-.12.48c-1.39,2.14-.36,6.66-3.92,6.31s-1.28-4.41-2.19-6.64a7.63,7.63,0,0,0-.77-1.23c-3.27-10.56-4.1-21.5-4.91-32.44a30.44,30.44,0,0,1,.51-8.93c1.46-6.53,7-8.69,12.38-4.69,3.43,2.56,4.84,6.13,5.09,10.37.47,8.29-1.85,16.13-3.48,24.1Q605.41,104.64,604.12,111Z" fill="#742017"/><path d="M511.2,121.55c-1.23,2,0,4.14-.1,6.21-.07,1.11.15,2.48-1.2,3-1.17.41-1.59-.82-2.27-1.46-1.55-1.44-3.13-2.85-4.7-4.28a204.16,204.16,0,0,1-16.05-25.23,34.3,34.3,0,0,1-3.35-8.83c-.79-3.44-.85-6.93,2.52-8.9,3.64-2.12,7.59-2.44,11.1.71,4.39,3.94,6.43,9.21,8.11,14.64C507.72,105.31,508.28,113.72,511.2,121.55Z" fill="#742017"/><path d="M439.72,457.29c3.58-.71,5.89-3.47,8.7-5.41,1.2-.83,2.44-1.52,3.46-.29.86,1,0,2.17-.82,3.05a26.21,26.21,0,0,0-4.6,8.13c-4.9,7.73-9.75,15.49-14.71,23.18a21.06,21.06,0,0,1-8,7.38c-3.6,1.87-7.39,2.89-10.47-.71s-3.1-7.53-.72-11.58c3.55-6.07,8.86-10.24,14.56-14.12C431.49,464,436.43,461.69,439.72,457.29Z" fill="#742017"/><path d="M465.18,145.47a55.1,55.1,0,0,1,3.27,5.46c.76,1.65,2.51,3.62.08,5.25-2,1.37-3.39-.43-4.64-1.64-1.8-1.75-3.55-3.49-6.19-3.83-5.89-6.8-13.91-11.25-19.85-18-2.41-2.75-5-5.34-6.67-8.64-1.48-3-2.19-6.07.19-8.88s5.36-3,8.66-2.24c5.78,1.35,9.36,5.38,12.56,10C457.54,130,460.55,138.19,465.18,145.47Z" fill="#742017"/><path d="M388.42,374.73c2.79-.05,5.59-.08,8.39-.17.86,0,1.69-.05,2.08.88.51,1.23-.42,1.89-1.25,2.35-2.28,1.28-4.64,2.43-7,3.63-10.45,4.28-20.06,10.36-30.71,14.21a21.38,21.38,0,0,1-8.23,1.73c-3.94-.18-7.28-1.67-8.38-5.79-1.14-4.3.95-7.35,4.59-9.51,4.43-2.63,9.44-3.28,14.36-3.71C371.08,377.58,379.7,375.85,388.42,374.73Z" fill="#742017"/><path d="M379.21,327.81c3.42.4,6.83.85,10.26,1.17,1.35.12,2.82,0,3.11,1.68s-1.11,2.31-2.15,3c-3.05,2.08-6.91,1.87-10.15,3.44-7.64,1.48-15.26,3-22.9,4.44a18.16,18.16,0,0,1-12.56-1.76c-2.95-1.65-5.72-3.91-5.29-7.74.4-3.52,3.2-5.22,6.3-6.38,5.86-2.18,11.79-1,17.69-.27C368.76,326.09,374,327,379.21,327.81Z" fill="#742017"/><path d="M381.77,276.15c3,1.24,6,2.5,9.07,3.72,1.31.52,3.14.39,3.15,2.47,0,2.59-2.43,1.81-3.69,2.27-3.22,1.18-6.93-.49-10.11,1.49-7.3-.43-14.5,1.7-21.82.89-2.47-.27-5-.3-7.42-.76-5.39-1-8.18-3.93-7.91-8s4-7.66,8.74-8.18a33.84,33.84,0,0,1,13.31,1.14Q373.45,273.67,381.77,276.15Z" fill="#742017"/><path d="M425.54,181.63c.61,2.37,2.68,3.73,3.92,5.66.86,1.34,2.49,2.74,1.16,4.36-1.12,1.36-2.64.32-4.06-.23-2.28-.89-4.68-1.46-7-2.16-5.06-2.83-10.17-5.59-15.18-8.51s-9.61-6-12.94-10.74c-3-4.2-2.58-7.64.9-11.17,3.25-3.29,6.55-1.67,9.48.26a86.72,86.72,0,0,1,18.91,17.58C422.17,178.46,423.45,180.44,425.54,181.63Z" fill="#742017"/><path d="M397.25,226.2c1.74,1.18,3.42,2.44,5.22,3.51,1.11.65,1.94,1.39,1.4,2.66-.46,1.09-1.63.75-2.57.76-2.19,0-4.06-1.06-6.05-1.71A135.16,135.16,0,0,1,366,225.84a36.22,36.22,0,0,1-6-2.41c-3.38-1.8-7.19-3.63-5.64-8.57,1.42-4.55,6.27-6.93,11.26-5.86a50.58,50.58,0,0,1,18.4,8.42C388.39,220.44,392.28,224.14,397.25,226.2Z" fill="#742017"/><path d="M697.69,476.82c-2.26-3.65-4.62-7.24-6.76-11-1.27-2.19-1.31-4.53.88-6.27,2.37-1.89,4.87-1.27,6.7.68,2.94,3.12,5.54,6.56,8.28,9.86,2,3.81,4.1,7.56,5.88,11.47,1.05,2.31,1.51,5-1.22,6.64s-4.77,0-6.42-2C702.5,483.16,700.13,480,697.69,476.82Z" fill="#742017"/><path d="M721.42,165.67c-2.83.88-4.19,3.67-6.61,5.11-1.95,1.17-3.9,1.89-6,.29s-1.73-3.87-.86-5.85c1.18-2.71,2.74-5.25,4.14-7.86,2.57-2.6,5.11-5.22,7.7-7.8a11.21,11.21,0,0,1,5.46-3.33,5.17,5.17,0,0,1,5.72,2.08c1.37,1.95.59,3.82-.48,5.59C727.94,158.17,723.39,160.92,721.42,165.67Z" fill="#742017"/><path d="M534.9,114.37c.5,3.27,1.1,6.53,1.47,9.82.3,2.67-.4,5.08-3.25,6-3.11,1-5.31-.74-6.51-3.24a84.64,84.64,0,0,1-3.26-9.35c-.65-3.92-1.33-7.84-2-11.76-.43-2.73.29-5.14,3-6.16,2.9-1.1,4.84.8,5.93,3.17C532,106.62,533.39,110.53,534.9,114.37Z" fill="#742017"/><path d="M764.37,396.06c-2-1.15-4-2.22-6-3.45a5.13,5.13,0,0,1-2.48-6c.72-2.87,3.2-3.33,5.51-3.19a67.22,67.22,0,0,1,8.27,1.45c3.8,1.59,7.67,3,11.37,4.83,2.88,1.4,5.93,3.39,4.46,7.17-1.34,3.43-4.71,3.08-7.72,2.39C773.31,398.27,768.84,397.14,764.37,396.06Z" fill="#742017"/><path d="M780.73,343.17c-3.52-.7-7.09-1.24-10.56-2.13-2.52-.65-4.51-2.14-4.39-5.17.15-3.41,2.73-4.52,5.39-4.66a100.56,100.56,0,0,1,10.81.53c3.1.53,6.26.85,9.29,1.66s6.88,1.32,6.48,5.52c-.39,4-4.26,3.6-7.09,3.91C787.37,343.18,784,343.07,780.73,343.17Z" fill="#742017"/><path d="M580.07,109.29c0,3.31.12,6.62,0,9.93-.11,2.55-1.38,4.51-4.09,4.84s-3.86-1.53-4.82-3.56c-1.59-3.38-.83-7.22-2-10.69,0-4.78-.11-9.57.17-14.34.15-2.45.83-5.22,4.06-5.35s4,2.54,4.48,5C578.73,99.82,579.35,104.56,580.07,109.29Z" fill="#742017"/><path d="M754.86,208.19c-3,.52-4.8,3.27-7.64,4.23-2.11.71-4.06.85-5.55-.78s-1.1-3.71-.09-5.58c1.69-3.16,4.71-5.13,7-7.73,3.08-2,6.08-4.09,9.27-5.87,2.78-1.55,6-2.08,8.19.75,2.37,3,0,5.32-2.09,7.25C761,203.13,757.91,205.62,754.86,208.19Z" fill="#742017"/><path d="M443.22,163.42c1.67,2.43,3.43,4.8,5,7.31,1.41,2.31,1.6,4.76-.61,6.71s-4.67,1.32-6.72-.39-3.78-3.63-5.66-5.47c-2.55-3.45-5.17-6.86-7.62-10.39-1.5-2.15-2.37-4.6-.09-6.76,2.54-2.43,5-1,7.07.82C437.57,157.84,440.35,160.69,443.22,163.42Z" fill="#742017"/><path d="M627.1,114.94a68.35,68.35,0,0,1-2.48,6.91c-1,2.18-2.89,3.75-5.51,3.25-2.89-.55-3.93-2.91-4-5.5a60.28,60.28,0,0,1,.76-7.29c1.45-4.38,2.79-8.81,4.41-13.13,1-2.58,2.58-4.88,5.9-4s3.1,3.62,2.84,6.08C628.55,105.82,627.77,110.37,627.1,114.94Z" fill="#742017"/><path d="M679,134.92a67.71,67.71,0,0,1-4,6.78,4.57,4.57,0,0,1-6.2,1.43,4.64,4.64,0,0,1-2.39-5.89c.8-2.68,1.84-5.29,2.77-7.92,2.34-4,4.55-8,7.07-11.9,1.35-2.07,3.28-4.28,6.1-2.83,2.58,1.32,1.93,4,1.27,6.21C682.16,125.54,680.53,130.21,679,134.92Z" fill="#742017"/><path d="M410.17,202.6c2.52,1.84,5.11,3.59,7.54,5.55,2.21,1.79,3.61,4.12,1.83,6.88-1.68,2.61-4.14,2-6.62,1-2.93-1.12-5.25-3.45-8.41-4-2.52-2.72-5.93-4.18-8.89-6.28-2.28-1.62-5.21-3.29-3.37-6.69s4.86-2.2,7.5-1.14C403.28,199.35,406.7,201,410.17,202.6Z" fill="#742017"/><path d="M557.11,512.76c.27-3.27.42-6.56.85-9.82.39-3,1.72-5.64,5.1-5.7s4.59,2.57,5.21,5.57c.75,3.62,0,7.24.22,10.85-.61,3.07-.18,6.29-1.42,9.27-.89,2.13-2.09,3.89-4.62,3.82-2.88-.07-3.92-2.25-4.3-4.64C557.64,519,557.44,515.88,557.11,512.76Z" fill="#742017"/><path d="M738.31,439.55c-1.82-1.88-3.75-3.65-5.4-5.66-1.51-1.84-2.52-4.08-.77-6.29s3.93-1.84,6.26-.88,4.32,3.06,7.05,3.39c2.77,2.85,5.67,5.58,8.27,8.58,1.73,2,3.43,4.56,1.08,7.1-2.08,2.25-4.68,1.18-6.87-.1C744.65,443.76,741.51,441.6,738.31,439.55Z" fill="#742017"/><path d="M655.89,499.78c-.82-3.19-1.76-6.36-2.42-9.58-.51-2.51.34-4.66,2.84-5.69s4.25.62,5.34,2.47c1.58,2.68,2.72,5.62,4.05,8.45.87,3,1.72,6.08,2.61,9.11s1.75,6.27-1.93,7.77-5.28-1.81-6.69-4.39S657.14,502.5,655.89,499.78Z" fill="#742017"/><path d="M609.65,511.84c-1.08-3.21-.76-6.53-.76-9.81,0-2.73,1.06-4.89,4.1-5.3a4.94,4.94,0,0,1,5.68,3.77c1,3.12,1.43,6.39,2.11,9.6.07,3.29.29,6.59.18,9.88-.07,2.27-1.06,4.31-3.59,4.7s-4.11-1.26-4.88-3.38C611.37,518.21,610.58,515,609.65,511.84Z" fill="#742017"/><path d="M782.88,299a60.75,60.75,0,0,1-7.28-1c-2.1-.54-3.91-1.76-3.91-4.4a4.53,4.53,0,0,1,3.63-4.64c2.18-.64,4.43-1.07,6.65-1.58,4.49-.1,9-.25,13.34,1.18,2.16.72,4.13,1.88,4.13,4.4s-2.08,3.8-4.25,4.23C791.12,297.94,787,298.39,782.88,299Z" fill="#742017"/><path d="M774.71,253.26c-2.06.59-4.1,1.28-6.2,1.74-1.9.41-3.74,0-4.71-1.86s-.06-3.58,1.28-4.89c2-1.94,4.18-3.72,6.28-5.57,3.7-1.42,7.34-3,11.13-4.2,3-.92,6.42-.93,7.76,2.39s-1.59,5-4.1,6.41C782.38,249.34,778.53,251.27,774.71,253.26Z" fill="#742017"/><path d="M379,301.94c4.1.07,8.21-.23,12.28.74,2.35.57,4,1.6,3.91,4.24s-1.61,3.94-4,4.24c-4.23.53-8.49.86-12.74,1.28-3.1-.36-6.24-.57-9.31-1.12-2.08-.37-3.71-1.66-3.71-4s1.71-3.59,3.75-4C372.46,302.68,375.76,302.38,379,301.94Z" fill="#742017"/><path d="M508.94,500.27c.79-2.17,1.5-4.38,2.4-6.5,1.39-3.29,3.44-6.07,7.51-4.9,4.35,1.26,3.76,5,3.17,8.28a76.72,76.72,0,0,1-2.13,7.64c-1.49,2.56-2.84,5.2-4.51,7.63-1.26,1.84-3.17,3.13-5.52,2.15-2.16-.89-2.48-3-2.26-5C507.94,506.44,508.48,503.36,508.94,500.27Z" fill="#742017"/><path d="M422.5,437.85c3.11-1.86,5.48-4.78,9-6.16,2.62-1,4.9-.94,6.67,1.38s.86,4.58-.77,6.34c-2.34,2.54-5,4.75-7.57,7.1-2.55,1.51-5.05,3.13-7.69,4.5a4,4,0,0,1-5-.63c-1.62-1.75-1.26-3.75-.05-5.48C418.72,442.46,420.66,440.19,422.5,437.85Z" fill="#742017"/><path d="M461,474.31c1.72-2.62,3.27-5.37,5.19-7.83,1.73-2.21,4.07-3.57,6.93-1.87,2.69,1.6,2.51,4.3,1.63,6.62-1.28,3.34-3.13,6.47-4.73,9.68-1.88,2.07-3.73,4.17-5.66,6.2-1.75,1.84-3.88,2.69-6.2,1.2s-2.3-3.85-1.22-6.13C458.22,479.51,459.66,476.93,461,474.31Z" fill="#742017"/><path d="M387.92,250.36c3.52,1.37,7.08,2.64,10.54,4.14,2,.88,4,2.32,3.33,4.85-.7,2.69-3.1,3.3-5.55,2.89-3.72-.62-7.39-1.47-11.08-2.23-3.08-1.12-6.23-2.12-9.24-3.41-2.37-1-4.53-2.59-3.66-5.62s3.49-3.35,6.05-2.9C381.55,248.66,384.72,249.59,387.92,250.36Z" fill="#742017"/><path d="M397.11,396.68c2.32-.86,4.6-1.91,7-2.54,3-.8,6.52-1.91,8.24,2s-1.38,5.68-4.13,7.33c-2,1.19-4,2.22-6.07,3.33-3.11,1.05-6.18,2.31-9.37,3.09-2.07.51-4.46.52-5.48-2.06-.88-2.21.33-3.88,1.94-5.17C391.79,400.59,394.47,398.67,397.11,396.68Z" fill="#742017"/><path d="M486.51,132.42c.74,3.15,2.84,5.57,4.39,8.28,1.16,2,1.82,4.12-.37,5.77s-4.48.77-6-1.25c-2.12-2.71-4-5.6-6-8.41-1.11-4.07-3.92-7.29-5.6-11.09-.95-2.14-1.37-4.25.88-5.76,2.42-1.62,4.21,0,5.5,1.76C481.83,125.18,484.11,128.84,486.51,132.42Z" fill="#742017"/><path d="M382.26,350.93c3-.68,6.05-1.5,9.12-2,2.52-.4,4.7.5,5.38,3.2.64,2.5-.85,4.11-3,5-3,1.31-6.09,2.43-9.14,3.64-3.09.39-6.16.91-9.25,1.14-2.24.16-4.47-.43-5-3s1.51-3.43,3.31-4.27C376.54,353.37,379.41,352.17,382.26,350.93Z" fill="#742017"/></g><g id="Globe"><g id="Continents"><path d="M594.93,287.94a29.45,29.45,0,0,0-5.72-16.77c-2.07-2.75-.56-3.6,1.08-5.46,1.63,3.58,3,6.88,4.61,10.08,1.39,2.81,3.71,3.11,5.53.81,2.05-2.6,4.24-2.6,7-2,3.26.72,6.43.22,8.49-2.72s2.8-6.38.11-9.64c-1.29-1.55-1.14-3.39-.9-5.24.18-1.42,1-3.3-1.25-3.61-1.85-.27-2.44,1.51-2.77,3-.54,2.43-.93,4.89-1.3,7.35-.27,1.85-.44,4.08-2.45,4.52-2.56.55-2-2-2.44-3.42-.28-.84-.74-1.66-1.67-1.58-5.19.48-3.45-2.91-2.59-5.09,1.75-4.42,5-7.82,8.74-10.69,3.28-2.53,6.74-.7,10.08-.14,1.61.27,1.18,1.71.88,2.85-.35,1.38-.44,2.71,1.12,3.41a2.67,2.67,0,0,0,3.17-.85c2.67-3.26,6.88-4.86,9.36-8,2.18-2.76,2.86-6.67,4.64-9.94,1.18-2.17,1.59-2.36,3.43-1.13,4.32,2.91,7.77,6.75,11.51,10.29,1.51,1.43,2.94,4.1,5.75,1.83,2.18,1.09,3,3.4,4.47,5,2.45,2.66,3.25,6.79,7.16,8.14a30.72,30.72,0,0,1,4.31,10c-1.8,3.34-.1,6.5.84,9.51,2.26,7.18,3.17,14.6,4.51,21.94.5,2.71.56,5.14-2.9,6.41-2.71,1-2.86,3.77-2.92,6.37-.08,4.1.71,8.31-1.46,12.7-1.85-4.14-2.3-8.27-3-12.26-.92-5.61-4.31-8.46-9.48-9.51-4.9-1-9.82-1.77-12.93-7.18-1,6.34,1.51,9.69,7.22,10.9,4.62,1,5,2.17,2.13,5.9-7.4,9.43-10.15,9.18-15.55-1.36-1.35-2.63-2.41-5.58-5.81-6.36l-.23-.22.19.25c1.3,6.11,4.36,11.46,7.24,16.89,1.47,2.75,4.26,2.29,6.61,2.68,3.08.52,3.67,2,2.11,4.46-1.78,2.82-3.59,5.63-5.56,8.31-3.3,4.49-6.35,9-5.43,15a5.5,5.5,0,0,1-1.21,3.7c-6.3,8.15-12.47,16.41-22.14,21.14-2.23,1.1-2.89.43-3.84-1.16a44.72,44.72,0,0,1-4.37-10.59c-.68-2.34.17-4.12,1.55-6a6.91,6.91,0,0,0-.28-9.19c-1.55-1.87-2.81-3.85-2.47-6.32.81-6-2.44-8.44-7.68-9.6a22.33,22.33,0,0,0-7.44-.48c-7.59.87-11.55-3-15.53-12.13-2.6-6-.09-10.57,4.38-14.6a21.9,21.9,0,0,0,3.24-4.38c.84-1.26,1.71-3,3.11-3.06,5.06-.08,7.82-2.86,10.54-6.81,2.5-3.61,5.93-1.66,8.62.6.86.72,1.24,2,2,2.87,1.31,1.6,2.85,2.76,5.14,2.45,2.73-.37,1.35-3,2.59-4.61,2.52,2.71,5.68,3.07,9.1,3,1.74,0,4,.35,5.14,1.47,3.41,3.5,4.76.25,6-1.73,1.75-2.92-.88-4-3-4.34-4.14-.71-7.58-4.11-12.25-2.92-1.53.38-1.67-1.79-2.5-2.74-3.53-4-5.93-4.48-10.17-1.62a2.85,2.85,0,0,1-2.83.41c-4.14-2-7.79-.15-11.5,1.33Zm31.58-.49c2.3-.2,4.62-.3,6.91-.62,1.33-.19,2.75-.87,3.07-2.21.4-1.69-1.25-2.07-2.44-2.59-1.81-.8-3.63-1.6-5.46-2.36s-2.87.32-3.81,1.52c-1.16,1.47-2,3.14-1.17,5.06A2.23,2.23,0,0,0,626.51,287.45Zm19.12-9.11c-3.11,4.86-.7,7.57,1.28,10.36.67.95,1.29,2.26,2.69,1.46s1.16-2.37.45-3.53C648.62,284.26,646.72,282.18,645.63,278.34Z" fill="#bdd68f"/><path d="M550.89,402.11c-8.68.43-11.5-6.54-13.71-12.44a84.23,84.23,0,0,0-18.64-29.8,12.45,12.45,0,0,1-3.41-10.58c1-8.72-2.23-14.69-8.73-21.19-12.79-12.78-19.43-28.48-12-47.12a39.2,39.2,0,0,0,2.64-9.61c1.39-11.31,8.55-19.24,15.49-27.33.43-.5,1.19-1.34,1.5-1.22,8.32,3.15,8.88-6.85,14.43-8.61,1.79-.57,2.81-1.12,4.26.17a9.38,9.38,0,0,0,6.29,2.7c1.14,0,2.35.14,2.71-1.48.89-4,7-8.15,11.17-7.06,5.75,1.49,11.1,1.39,16.48-1.34,3.13-1.57,5.23-.16,5.55,3.3a42.93,42.93,0,0,0,2.1,10.75c1.37,3.83-.29,6.52-3.54,7.64-7.32,2.51-10.36,7.93-11.33,15-.41,2.91-1.63,3.35-4,1.85-2.18-1.39-6.44-1.31-6.29-4.13.24-4.69-2-9.62.87-14.14,1.35-2.1,2.63-4.24,3.81-6.44.87-1.64,1.6-3.5,0-5.1s-3.7-1.15-5.59-.35c-6.1,2.6-8.73,9.56-5.93,16.44,1.77,4.35,2.41,8-1.59,11.74-1.74,1.62-2,1.11-3.28-.12-2.43-2.36-4.12-4.78-2.82-8.36.31-.87.85-2.05-.55-2.49-.92-.29-1.44.59-1.91,1.26-2.07,2.94-3.57,6-8.44,5.62-2.3-.17-5.13,3-6.19,5.85s1.14,4,3.46,5c2,.9.85,2.95.79,4.52,0,1.06,0,2.17,1.16,2.47s1.71-.73,2.13-1.65a55.16,55.16,0,0,0,2.71-8.52c1.16-4.3,3.22-4.68,6-1.28,1.32,1.6,2.46,3.08,4.8,3,.72,0,2.07.65,2.07,1,0,4.74,3,8.38,4.43,12.57a3,3,0,0,1-1.16,3.56c-1.22.77-2.18-.19-3.21-.68a16.72,16.72,0,0,0-3.62-1.51c-1.18-.24-3,.42-2.44,1.65,2.94,6.61-3.81,6.94-6.19,7.73-9,3-10.16,10.63-12.36,17.86-.5,1.65,1,4.3-1.17,4.87s-2.71-2-3.54-3.59c-1.53-3-4.24-3-6.92-2.53-3,.57-3.07,3.19-3,5.54.13,3.65,1.58,5.13,5.48,3.51,5.7-2.38,14.14.07,17.52,4.74.66.91,1.74,2,.94,3.1-1,1.29-2.18.12-3.07-.43-2.28-1.38-4.42-3-6.67-4.4-1.19-.76-2.37-2.45-3.9-1.28s-1.12,2.87-.87,4.61c1.21,8.28,7.47,11.46,14,14.81,5.93,3.05,12.63,5.43,15.33,12.58.76,2,2.56,3,4.58,3.53q4.1,1.13,8.17,2.28c5.47,1.57,6.71,4.24,4.42,9.52-.13.31-.43.56-.48.87-1,5.68-2.51,10.38-8.2,14.08-4.83,3.13-5.84,9.43-1.89,15.1a17.14,17.14,0,0,1,1.48,3.69Z" fill="#bcd690"/><path d="M669.24,355.28c-2.65,6.89-5.79,13.41-10.86,18.78-.86.92-1.88,2.39-3.28,1.25-1.21-1,.07-2.14.61-3.06A72.78,72.78,0,0,1,669.24,355.28Z" fill="#bcd690"/><path d="M595.11,288.12c-.1,1.31-.17,2.64-.31,3.95-.27,2.52-1.5,4-4.23,3.7-2.29-.23-3.62-1.33-3.59-3.83,0-2.7,1.29-3.92,4-3.82,1.31,0,2.64-.11,4-.18Z" fill="#bdd68f"/><path d="M650.31,353.8c1.33.4,1.26,1.42.87,2.36a25.38,25.38,0,0,1-6.75,9.58,2.69,2.69,0,0,1-1.74.34,1.77,1.77,0,0,1-.28-1.28,28,28,0,0,1,7-10.59A3.65,3.65,0,0,1,650.31,353.8Z" fill="#bcd690"/><path d="M600.45,228.17c1.52.07,3.41.08,3.15,2.17-.24,1.9-1,4.21-3.47,4.14-2.08-.07-4-1.18-3.78-3.73S598.59,228.26,600.45,228.17Z" fill="#bcd690"/><path d="M572.36,255.31c.63-.77.78-1.11,1-1.24,2.3-1.2,4.58-2.81,7.26-1,.61.42.79,1.25.14,1.64C578.24,256.25,575.57,257.2,572.36,255.31Z" fill="#bcd690"/><path d="M611.3,288.47c2.46.3,2.88,1.77,3.37,4.24A5.57,5.57,0,0,1,611.3,288.47Z" fill="#bdd68f"/></g><g id="Accents"><path d="M575.36,403.79c2.46.24,4.94.38,7.38.76,1,.16,2.7.22,2.48,1.79-.17,1.26-1.62,1.44-2.79,1.58-4.35.51-8.56-.51-12.81-1.14-1-.14-2-.58-1.78-1.87.21-1,1.23-.94,2-1,1.82,0,3.65,0,5.47,0Z" fill="#b4dce5"/><path d="M629.12,226.59c-6.74-1.9-13.12-4.75-20.85-6.17C614.39,218,625,221.21,629.12,226.59Z" fill="#b4dce5"/><path d="M524.8,386.85c-.6.52-.74.73-.85.72-3.31-.36-4.94-2.77-6.37-5.37,0-.07.7-.82.94-.75C521.52,382.29,523.21,384.5,524.8,386.85Z" fill="#b4dde6"/><path d="M608.89,398.54c1.43.72,1.16,2.46,1.76,3.66a1.72,1.72,0,0,1-1.67,2.44c-3-.15.35-2.79-1.37-3.9C606.75,400.18,607.6,399,608.89,398.54Z" fill="#b4dce5"/><path d="M604,405.25c-1-1.49-2.5-2.89-1.16-4.7a1.55,1.55,0,0,1,2.22-.08C606.89,402.33,604.08,403.5,604,405.25Z" fill="#b4dce5"/></g><g id="Water"><path d="M675.32,268.93a55.18,55.18,0,0,1,9.52,27.91c1.41,20.43.44,40.58-9.61,59.22a22.46,22.46,0,0,0-1.27,3.76l-.77,1.06-.27,1a18.12,18.12,0,0,0-4,7.07v0a4.29,4.29,0,0,0-2,3c-12.3,17.86-30,28.82-49.49,36.6-19.11,7.62-39.13,7.08-59,2.49a95,95,0,0,1-42.57-22.12c-11.32-10.17-18.84-23.33-24.74-37.12-9.38-21.91-11.52-44.94-5.16-67.94,7-25.13,21.54-45,44.46-58.48,24.76-14.59,50.54-19.13,78.63-11.5,17.25,4.68,32.91,11.58,45.64,24.34,1.53,1.53,2.89,3.23,4.32,4.84.13.9.25,1.79.38,2.69-2.82,2.27-4.25-.4-5.76-1.83-3.74-3.54-7.19-7.38-11.51-10.29-1.84-1.23-2.25-1-3.43,1.13-1.78,3.27-2.46,7.18-4.64,9.94-2.48,3.15-6.69,4.75-9.36,8a2.67,2.67,0,0,1-3.17.85c-1.56-.7-1.47-2-1.12-3.41.3-1.14.73-2.58-.88-2.85-3.34-.56-6.8-2.39-10.08.14-3.75,2.87-7,6.27-8.74,10.69-.86,2.18-2.6,5.57,2.59,5.09.93-.08,1.39.74,1.67,1.58.47,1.41-.12,4,2.44,3.42,2-.44,2.18-2.67,2.45-4.52.37-2.46.76-4.92,1.3-7.35.33-1.45.92-3.23,2.77-3,2.21.31,1.43,2.19,1.25,3.61-.24,1.85-.39,3.69.9,5.24,2.69,3.26,2.06,6.55-.11,9.64s-5.23,3.44-8.49,2.72c-2.8-.61-5-.61-7,2-1.82,2.3-4.14,2-5.53-.81-1.58-3.2-3-6.5-4.61-10.08-1.64,1.86-3.15,2.71-1.08,5.46a29.45,29.45,0,0,1,5.72,16.77c-1.32.07-2.65.22-4,.18-2.7-.1-4,1.12-4,3.82,0,2.5,1.3,3.6,3.59,3.83,2.73.29,4-1.18,4.23-3.7.14-1.31.21-2.64.31-3.95,3.71-1.48,7.36-3.3,11.5-1.33a2.85,2.85,0,0,0,2.83-.41c4.24-2.86,6.64-2.4,10.17,1.62.83.95,1,3.12,2.5,2.74,4.67-1.19,8.11,2.21,12.25,2.92,2.08.37,4.71,1.42,3,4.34-1.2,2-2.55,5.23-6,1.73-1.09-1.12-3.4-1.5-5.14-1.47-3.42.06-6.58-.3-9.1-3-1.24,1.62.14,4.24-2.59,4.61-2.29.31-3.83-.85-5.14-2.45-.73-.9-1.11-2.15-2-2.87-2.69-2.26-6.12-4.21-8.62-.6-2.72,3.95-5.48,6.73-10.54,6.81-1.4,0-2.27,1.8-3.11,3.06a21.9,21.9,0,0,1-3.24,4.38c-4.47,4-7,8.65-4.38,14.6,4,9.09,7.94,13,15.53,12.13a22.33,22.33,0,0,1,7.44.48c5.24,1.16,8.49,3.63,7.68,9.6-.34,2.47.92,4.45,2.47,6.32a6.91,6.91,0,0,1,.28,9.19c-1.38,1.86-2.23,3.64-1.55,6a44.72,44.72,0,0,0,4.37,10.59c1,1.59,1.61,2.26,3.84,1.16,9.67-4.73,15.84-13,22.14-21.14a5.5,5.5,0,0,0,1.21-3.7c-.92-6.07,2.13-10.55,5.43-15,2-2.68,3.78-5.49,5.56-8.31,1.56-2.47,1-3.94-2.11-4.46-2.35-.39-5.14.07-6.61-2.68-2.88-5.43-5.94-10.78-7.24-16.89l0,0c3.4.78,4.46,3.73,5.81,6.36,5.4,10.54,8.15,10.79,15.55,1.36,2.92-3.73,2.49-4.91-2.13-5.9-5.71-1.21-8.21-4.56-7.22-10.9,3.11,5.41,8,6.18,12.93,7.18,5.17,1.05,8.56,3.9,9.48,9.51.66,4,1.11,8.12,3,12.26,2.17-4.39,1.38-8.6,1.46-12.7.06-2.6.21-5.39,2.92-6.37,3.46-1.27,3.4-3.7,2.9-6.41-1.34-7.34-2.25-14.76-4.51-21.94C675.22,275.43,673.52,272.27,675.32,268.93ZM550.89,402.11l.36.16-.16-.36a17.14,17.14,0,0,0-1.48-3.69c-4-5.67-2.94-12,1.89-15.1,5.69-3.7,7.18-8.4,8.2-14.08,0-.31.35-.56.48-.87,2.29-5.28,1.05-7.95-4.42-9.52q-4.08-1.15-8.17-2.28c-2-.55-3.82-1.52-4.58-3.53-2.7-7.15-9.4-9.53-15.33-12.58-6.52-3.35-12.78-6.53-14-14.81-.25-1.74-.55-3.52.87-4.61s2.71.52,3.9,1.28c2.25,1.43,4.39,3,6.67,4.4.89.55,2.11,1.72,3.07.43.8-1.08-.28-2.19-.94-3.1-3.38-4.67-11.82-7.12-17.52-4.74-3.9,1.62-5.35.14-5.48-3.51-.08-2.35,0-5,3-5.54,2.68-.51,5.39-.44,6.92,2.53.83,1.6,1.52,4.12,3.54,3.59s.67-3.22,1.17-4.87c2.2-7.23,3.33-14.87,12.36-17.86,2.38-.79,9.13-1.12,6.19-7.73-.55-1.23,1.26-1.89,2.44-1.65a16.72,16.72,0,0,1,3.62,1.51c1,.49,2,1.45,3.21.68a3,3,0,0,0,1.16-3.56c-1.43-4.19-4.42-7.83-4.43-12.57,0-.34-1.35-1-2.07-1-2.34,0-3.48-1.44-4.8-3-2.8-3.4-4.86-3-6,1.28a55.16,55.16,0,0,1-2.71,8.52c-.42.92-.93,2-2.13,1.65s-1.2-1.41-1.16-2.47c.06-1.57,1.16-3.62-.79-4.52-2.32-1.07-4.53-2.21-3.46-5s3.89-6,6.19-5.85c4.87.35,6.37-2.68,8.44-5.62.47-.67,1-1.55,1.91-1.26,1.4.44.86,1.62.55,2.49-1.3,3.58.39,6,2.82,8.36,1.27,1.23,1.54,1.74,3.28.12,4-3.7,3.36-7.39,1.59-11.74-2.8-6.88-.17-13.84,5.93-16.44,1.89-.8,3.92-1.34,5.59.35s.84,3.46,0,5.1c-1.18,2.2-2.46,4.34-3.81,6.44-2.9,4.52-.63,9.45-.87,14.14-.15,2.82,4.11,2.74,6.29,4.13,2.34,1.5,3.56,1.06,4-1.85,1-7.07,4-12.49,11.33-15,3.25-1.12,4.91-3.81,3.54-7.64a42.93,42.93,0,0,1-2.1-10.75c-.32-3.46-2.42-4.87-5.55-3.3-5.38,2.73-10.73,2.83-16.48,1.34-4.16-1.09-10.28,3.06-11.17,7.06-.36,1.62-1.57,1.47-2.71,1.48a9.38,9.38,0,0,1-6.29-2.7c-1.45-1.29-2.47-.74-4.26-.17C522.9,236,522.34,246,514,242.82c-.31-.12-1.07.72-1.5,1.22-6.94,8.09-14.1,16-15.49,27.33a39.2,39.2,0,0,1-2.64,9.61c-7.42,18.64-.78,34.34,12,47.12,6.5,6.5,9.78,12.47,8.73,21.19a12.45,12.45,0,0,0,3.41,10.58,84.23,84.23,0,0,1,18.64,29.8C539.39,395.57,542.21,402.54,550.89,402.11Zm118.35-46.83a72.78,72.78,0,0,0-13.53,17c-.54.92-1.82,2.08-.61,3.06,1.4,1.14,2.42-.33,3.28-1.25C663.45,368.69,666.59,362.17,669.24,355.28Zm-93.88,48.51,0,.15c-1.82,0-3.65,0-5.47,0-.8,0-1.82-.05-2,1-.27,1.29.82,1.73,1.78,1.87,4.25.63,8.46,1.65,12.81,1.14,1.17-.14,2.62-.32,2.79-1.58.22-1.57-1.46-1.63-2.48-1.79C580.3,404.17,577.82,404,575.36,403.79Zm53.76-177.2c-4.1-5.38-14.73-8.58-20.85-6.17C616,221.84,622.38,224.69,629.12,226.59ZM650.31,353.8a3.65,3.65,0,0,0-.89.41,28,28,0,0,0-7,10.59,1.77,1.77,0,0,0,.28,1.28,2.69,2.69,0,0,0,1.74-.34,25.38,25.38,0,0,0,6.75-9.58C651.57,355.22,651.64,354.2,650.31,353.8ZM600.44,228.16c-1.85.1-3.9.08-4.09,2.59s1.7,3.66,3.78,3.73c2.51.07,3.23-2.24,3.47-4.14C603.86,228.25,602,228.24,600.44,228.16Zm-28.08,27.15c3.21,1.89,5.88.94,8.44-.58.65-.39.47-1.22-.14-1.64-2.68-1.83-5-.22-7.26,1C573.14,254.2,573,254.54,572.36,255.31ZM524.8,386.85c-1.59-2.35-3.28-4.56-6.28-5.4-.24-.07-1,.68-.94.75,1.43,2.6,3.06,5,6.37,5.37C524.06,387.58,524.2,387.37,524.8,386.85Zm84.09,11.69c-1.29.43-2.14,1.64-1.28,2.2,1.72,1.11-1.61,3.75,1.37,3.9a1.72,1.72,0,0,0,1.67-2.44C610.05,401,610.32,399.26,608.89,398.54ZM604,405.25c.05-1.75,2.86-2.92,1.06-4.78a1.55,1.55,0,0,0-2.22.08C601.53,402.36,603,403.76,604,405.25Zm7.27-116.78a5.57,5.57,0,0,0,3.37,4.24C614.18,290.24,613.76,288.77,611.3,288.47Z" fill="#78a8bf"/><path d="M626.51,287.45a2.23,2.23,0,0,1-2.9-1.2c-.8-1.92,0-3.59,1.17-5.06.94-1.2,2.07-2.25,3.81-1.52s3.65,1.56,5.46,2.36c1.19.52,2.84.9,2.44,2.59-.32,1.34-1.74,2-3.07,2.21C631.13,287.15,628.81,287.25,626.51,287.45Z" fill="#78a8bf"/><path d="M645.63,278.34c1.09,3.84,3,5.92,4.42,8.29.71,1.16,1,2.68-.45,3.53s-2-.51-2.69-1.46C644.93,285.91,642.52,283.2,645.63,278.34Z" fill="#78a8bf"/></g></g><path id="RNA" d="M477,201.72a8.66,8.66,0,0,1,.17-2.95c.82-1.81,1.61-4.43,3.05-5a6.1,6.1,0,0,1,5.53,1.72c2.93,4.11,5.18,8.7,7.7,13.11.35,1.9.7,3.8,1.17,6.31l9.64-1.11c5.72-1,8.06-5.49,9.7-10.24.39-1.13-1.1-3-2-4.43-3.09-5-6.74-9.73-9.29-15a7.14,7.14,0,0,1,2.89-9.6c3.55-2.15,6.77-.6,9.56,1.73,4.66,3.89,5.57,9.23,5.16,14.9-.33,4.58-.88,8.91,5.24,10.46,5.24,1.33,9.18.14,12.79-5a23.36,23.36,0,0,0,1.8-3.19c-4-6.35-7.7-12-11-17.8A10.37,10.37,0,0,1,528,169.5c.33-2.25,1.33-5.73,2.8-6.17a9.51,9.51,0,0,1,7.65,1.47c6.18,4.93,8.88,11.77,8.81,19.7-.06,6.23,3.85,9.35,9.72,7,2.89-1.15,5.31-3.82,7.48-6.21.56-.61-.26-3-1-4.21-3.71-5.83-6.88-11.91-6.21-19,.23-2.46,1.77-6.05,3.61-6.74s5.37,1,7.11,2.77c5.4,5.36,5.9,12.4,5,19.5-.35,2.77-1.91,5.28,1.61,7.34s7,3.83,11.12,1.48a5.7,5.7,0,0,0,1.32-.94c-1.07-6.75-2.14-12.67-2.87-18.63a8.19,8.19,0,0,1,1-5.26c1.56-2.24,3.84-5.51,5.85-5.54,2.45,0,5.76,2.31,7.25,4.57,3.18,4.86,2.46,10.5.74,15.82a78,78,0,0,1-3.6,8.07c2.7,3.43,6.06,5.24,10.86,3.21,2.74-1.17,3.82-2.7,3.9-6a111.67,111.67,0,0,1,2.11-18.13c.6-3.11,3.07-6.55,6.52-5.32,2.34.83,4.6,4.24,5.28,6.9,1.68,6.59-1.37,12.25-5.16,17.5-3.12,4.31-2.23,9.76,2.12,13.22,3.1,2.46,8.19,1.64,11.45-2.23.85-1,.73-2.92.91-4.43.63-5.21.73-10.54,1.93-15.61.84-3.53,3.69-6.19,7.89-5.15s6.63,4.46,5.63,8.16c-1.34,4.93-4,9.64-6.69,14-2.4,3.86-3,9.78,0,12.87,3.66,3.8,7.71,1.76,11.42.08,1.17-.52,1.9-2.41,2.46-3.82,3.08-7.73,7.5-14.55,14.59-19,2.12-1.33,5.9-1.89,8-.89,3.29,1.53,2.78,5.13,1.52,8.35-2.93,7.49-9.21,11.46-15.61,15.42-2.45,1.52-6.42,1.91-5.45,6.46s3.69,7.41,8.15,8.36c7.6,1.63,11.22-.56,14.92-7.47a68.07,68.07,0,0,1,8.67-12.64c1.4-1.61,4.52-1.72,6.86-2.51.64,2.57,2.16,5.29,1.74,7.66-1.28,7.26-6.56,11.6-12.66,15.1-4.24,2.43-5.92,9.5-3.94,15.91,1.74,5.59,4.43,7.26,9.83,6.84,3.94-6,7.16-11.83,11.24-16.94,2.44-3.07,5.86-6.49,10.64-3.91,3.25,1.76,3.28,6,.31,11.7a25,25,0,0,1-13.76,12.37c-2.33.87-3.22,2.14-3.28,4.65-.15,6.45-.3,12.75,6.19,16.29,4.57-4,8.71-8.06,13.36-11.46,5.22-3.81,10.87-3.72,13.06-.52,2.36,3.46.86,9.56-4.46,12.8-4.51,2.75-9.86,5.07-15,5.52-4.64.41-5.47,2.41-5.93,5.88-.62,4.77.85,8.47,3.83,9.78,7.44-3.29,13.56-6.53,20.06-8.65,3.8-1.24,9.08-1.5,10.86,3.28,1.87,5-2.79,7.33-6.42,9.24-5.64,3-11.67,4.8-18.15,3.39-2.56-.56-3.5.39-4.31,2.68-1.38,3.91.23,6.63,2.71,9.4,2.69,3,4.79.45,7-.46,5.61-2.29,11.34-4.32,17.3-2,2,.77,4.61,3.05,4.69,4.75s-2.16,5.18-3.85,5.51c-5.58,1.07-11.69,2.42-17,1.15-5.72-1.38-8.05,1-9.27,5-1.17,3.84-.85,8.12-1.24,12.84,4.92-.61,8.29-1.29,11.67-1.38a41.77,41.77,0,0,1,9.87.75c3.94.84,7.53,3.05,7,7.65-.52,4.38-4.33,6.15-8.32,6.62-7.56.89-13.92-2.14-19.4-6.93-7.36,4.24-10.45,12.12-7.62,19.71.41,1.11,2.22,1.91,3.55,2.44,5.31,2.14,10.94,3.64,15.94,6.32,3.68,2,5.82,6.07,3.49,10.23s-6.81,4-10.17,2c-5.44-3.22-10.3-7.41-16.25-11.8-6,1.66-8.27,7.37-5.66,17.16,4.26,1.64,8.55,2.91,12.43,4.94A12.33,12.33,0,0,1,713,397c.76,1.71.48,4.89-.7,6.18s-4.26,1.92-6.15,1.43c-7.29-1.89-11.33-7.66-14.86-13.93-5.94,1.35-8.95,5.23-10,11,3.73,2,7.64,3.85,11.16,6.22,4.07,2.73,7.4,6.21,7.85,11.54s-2.72,7.91-7.65,6.1c-7.5-2.77-12.07-8.31-14.83-15.7-.6-1.62-2.53-2.76-3.85-4.12-7.89-.6-10,.42-12.66,6,4.73,4.23,9.65,8.09,13.88,12.61a24.07,24.07,0,0,1,4.85,9.06c1.76,5.55-1.56,8.71-7.29,7-7-2.05-11.45-7.13-14.53-13.46a28.36,28.36,0,0,1-2.13-6.59c-1-4.77-2.31-5.76-6.87-3.79A16.67,16.67,0,0,0,643.6,421c-2.2,2.58-2.37,4.86,1.08,7.27,6.41,4.47,11.31,10.46,12.62,18.37.42,2.52-.5,6.48-2.28,7.8s-5.92,1.07-8.08-.15c-7.4-4.2-9.89-11.57-11-19.59-.28-2.09-1.09-5.87-1.64-5.87a24.55,24.55,0,0,0-8.86,1.77c-1.45.59-2.33,2.63-3.48,4,5.93,6.7,10.89,13.63,10,22.8-.21,2.19-2,5.18-3.82,6-1.56.67-4.91-.69-6.33-2.21a23.24,23.24,0,0,1-6-19.79c.74-4.91-2.14-5.72-5.36-6.62-4-1.13-4.76,2-5.45,4.74-2.48,10.07.4,19.27,4.68,28.24a45.56,45.56,0,0,1,1.73,5l-1.57.9c-1.89-2.34-4.25-4.43-5.59-7.05a47.05,47.05,0,0,1-5.16-26.94c1-9.37,7.28-12.92,15.92-9.34.9.38,1.77.8,2.58,1.17,7.23-7.91,8-8.24,19.4-8.18,3.11-8.7,8.93-13.65,19.38-12.05,1.81-7.56,7.6-10.14,14.62-11l5.71.9c1.67-7.2,5.55-12.57,13.31-14.2-2.22-10.37-.17-18.71,9.89-23.33-2.74-14-1.76-17.22,8.32-28-4.58-8.56-2.19-16.23,3.69-23.42-7.11-5.34-8.7-11.95-4.79-19.72-8.89-5.88-8.57-13.69-5.26-22.24-9.39-5.34-9.68-14.29-9.08-23.45-6.26-.36-11.71-2.17-13.63-8-1.65-5-1.68-10.48-2.33-15.07-4.66-.67-10.48-.13-14.65-2.5s-6.39-7.59-9.57-11.68c-2.85-.33-7.28.29-10.24-1.51-3.23-2-5.1-6.16-6.63-8.18-5.36.74-10.61,3-14.57,1.59C617,200,614,195.07,610.06,191.3c-6.1,4.13-12.73,3.08-18.71-2.59-7.74,6.2-15,4.73-22.11-.85-6.09,9-13.92,12.35-23.85,7.58-9,13.19-13.54,14.69-26.11,9.35L510.18,216l-16,3.29c-1.06,6.68-5.15,12.63-14.08,14.35-.06,10.42-2.58,19.54-12.9,24.46,3.27,6.95,5.31,14.37,1.44,20.76-3.31,5.47-4.32,9.9-2.67,16.08,1.59,6-.08,12.14-3.62,17.59a5.37,5.37,0,0,0-.19,4.39,27.59,27.59,0,0,1,1.46,18.45,4.85,4.85,0,0,0,1.08,4.09c10,8.16,11.07,13.15,4.77,24.76a6,6,0,0,0-.18,1.52c10.29,2.57,11.48,9.89,8.64,18.26,4.84,1.56,10,1.94,13.18,4.6s4.42,7.57,7.11,12.6c7,.1,12.61,4.67,15.06,13,14.37,1.08,17.81,3.36,22.24,14.63,11.29-4.23,14.3-3.61,21.8,4.48,11.94-4.81,22,1.48,26.53,16,2.53,8.19.31,15.66-2.25,23.19-.33,1-1.63,1.59-2.47,2.38l-1.25-.64c.62-3.64,1.36-7.26,1.83-10.92,1.24-9.72-.43-18.55-8.46-25.16a12.4,12.4,0,0,0-4.76-2.53c-4.26-1-7.06,2-5.92,6.07,1.87,6.72,2.66,13.56-.54,19.91-1.3,2.57-4.3,5.41-6.94,5.9-3.77.69-5.39-3.12-6.33-6.43-2.09-7.35,1-13.64,4.41-19.74,2.71-4.76.43-9.43-5.13-10-6-.66-9,2.43-10.09,8.21a60.1,60.1,0,0,1-5.42,15.75c-.89,1.78-4.52,2.18-6.91,3.22-.87-2.26-2.93-4.86-2.4-6.72a53.56,53.56,0,0,1,6.36-14.78c2.19-3.31,3.69-5.78,1.81-9.66-2.11-4.38-5.18-7.25-10.08-7.86a26,26,0,0,0-3.74,0c-2.1,5.85-3.48,11.67-6.19,16.79-3.26,6.16-8,8.48-11.34,7-3-1.33-4.18-7.92-2.49-13.81,1.89-6.55,6.55-10.57,12.37-13.41-1.43-7-4.78-9.62-11.52-9.41-2.44,5.26-4.59,10.58-7.36,15.56a24.15,24.15,0,0,1-6.23,7c-1.43,1.12-4.27,1.82-5.72,1.13s-2.75-3.32-2.85-5.16c-.55-9.7,4.48-16.3,12.61-20.84,5.08-2.83,5.44-8.91.64-12.48s-10.52-2-13.5,3.05a58.46,58.46,0,0,1-7.91,10.74c-2.62,2.75-6.2,4.07-9.82,1.17-2.7-2.17-3.59-8.13-.62-10.86,3.79-3.47,8.31-6.76,13.11-8.35,5.64-1.86,6.66-6,7.28-10.38.65-4.65-3.73-5.65-6.82-7.4-2.44-1.37-4.18-.42-6.11,1.36-6.48,5.94-14,9.72-23,8.24-2.67-.44-6.45-2.64-7.06-4.78s1.44-6,3.49-7.77c6.17-5.24,13.9-4.92,21.37-4.09,3.24.35,6,1.56,7.9-2.44,2.05-4.37,3.82-8.56.35-13s-5.43-4.42-9.13-.53a34.32,34.32,0,0,1-18.84,10.46c-3.86.72-7.82.51-10.07-3.52s0-7.17,2.36-9.93c5.61-6.39,13.16-7.88,21.24-7.62,1.82.06,3.64.26,5.8.41a20.84,20.84,0,0,0-.35-18,35,35,0,0,1-23.56,6.93c-3.77-.26-7.7-.8-9.12-4.76-1.54-4.31,1.41-7.33,4.63-9.57,9-6.31,18.42-6.51,28.18-.74,4.77-7,5.09-14.08,2.4-20.68-7.22-.41-13.76-.45-20.2-1.29a12,12,0,0,1-7.3-3.84c-1.93-2.47-3.62-6.13-3.35-9.08.37-3.95,4.26-5.7,8.18-6,8-.52,14.5,2.88,20.15,8.17a22.7,22.7,0,0,1,2.55,3.35c7.56-4,6.14-16.11,2.74-20.39-.81-1-3.26-1-5-1a22.27,22.27,0,0,1-17.82-8.45c-2.13-2.57-3.82-5.78-1.34-9.07,2.37-3.14,5.87-3.41,8.95-1.56,6,3.61,11.8,7.7,18.28,12,5.66-2.23,10.28-9.41,9.19-16.35-.2-1.24-2.11-2.47-3.49-3.22-4.18-2.25-8.87-3.74-12.63-6.5-4.21-3.09-4.67-8.23-2.1-11.42a8.16,8.16,0,0,1,11.67-.59c4.21,3.75,7.47,8.56,11.72,13.58,5.27-.34,8.43-3.81,9.07-11.77-6.64-2.59-10.23-7.87-12-14.63M708.36,369l-.05-.06c4.17,3.71,7.84,8.37,14.5,7.91-1.83-5.56-8.58-9.09-14.45-7.85M472.19,227.64a2.25,2.25,0,0,0,.19.38s.19-.05.29-.08l-.56-.18c-1.6-6.7-6.38-10.56-11.71-9.45.22,5,4.62,8.52,11.79,9.33m16.46,181.19c-6.52,3.61-10,8.95-10,17.88,6-5.3,9.54-10.52,10.63-17.25l.56-.56-1.15-.07M429,319.36c9.14,2.55,16.91.89,24.28-4.5a16.49,16.49,0,0,0-24.28,4.5m27.06-35.45c-5.33-6-10.87-9.34-18.06-9.19-1.52,0-3,1.52-4.52,2.33.92,1.45,1.51,3.38,2.8,4.28,5.78,4,12.2,3.8,19.78,2.58m-1.41,57.51c-8.39-.84-15.43-.28-20.75,5.91-.86,1-1,2.6-1.45,3.92,1.36.39,2.78,1.28,4.06,1.1,7.16-1,12.89-4.6,18.14-10.93m4.92,26.45c-9.17-3.59-20.49-.31-22.31,6.24,8.61,3,15.24-.84,22.31-6.24m192.08,83.55c2.39-6-3.7-16.11-10.91-18.72.25,8.17,2.82,14.78,10.91,18.72M675.57,436c-.42-6.56-7.56-14.92-14.52-17a19.07,19.07,0,0,0,14.52,17m-119.91,7c-6.15,8-6.89,15.65-2.3,20.21,4.21-4.18,4.92-10,2.3-20.21m-46.88-21.7c-7.94,4.19-10.7,9.69-8.86,16.91,5.58-2.33,9.08-8.88,8.86-16.91m83-241.59c4.89-7.76,4.66-15.11-.27-18.89-3.47,4.64-3.44,11.11.27,18.89m-77.32,15.45,2.87-1.31c-1.57-4.45-2.94-9-4.85-13.29-.45-1-2.75-1.17-4.2-1.72-.28,1.48-1.27,3.31-.74,4.38,2,4.11,4.57,8,6.92,11.94M681.89,407.38c2.81,8.51,8,13.34,14.2,13.54-1.17-8.07-7.67-10.33-14.2-13.54m44.69-151.6c-7.49,1.35-11.77,6.2-16.56,11.55,9.64-.62,14.92-4.23,16.56-11.55m-50.12-72.43c-7,2.28-14,10.7-14.86,17.07,6.18-4.38,13.15-7.83,14.86-17.07M533.1,166.92c-.28,8.49,3.69,13.5,9,18.92.36-8.25-2.49-13.81-9-18.92M717.65,337.8c5.3,5.44,12.7,6.3,17.31,2-5.44-3.93-11.28-2.62-17.31-2m17.28-52c-.18-.62-.37-1.24-.56-1.86-7.34-.8-13.69,1.6-16.52,7.53l17.08-5.67m-35.34-47.34,1.35,1.13c5.66-3.25,9.8-7.62,11-14.19l-1.57-1.19-10.77,14.25m-79,203.7c-.4,6.22.8,11.88,6.23,17.14,1.06-7.63-1.76-12.65-6.23-17.14m-163-187.78.55-1.38-14.4-8.76c1.11,6.7,6.65,10.09,13.85,10.14M566.36,177l1.68-.51c.31-6,.39-11.84-4.94-15.84l-1.87.62L566.36,177m-96.5,216.54-1.07-.92c-7.83,2.52-10.32,5.36-8.89,12.15l10-11.23M638.13,186.2c6.47-5.82,7.26-9.56,2.6-13.29-.94,4.82-1.77,9.05-2.6,13.29M618.58,164l-1.53-.14q-1.2,7.31-2.41,14.59c5.13-5.83,5.84-9.54,3.94-14.45M737.07,311.2l-.43-3-13.92,1.91c.08.71.15,1.41.23,2.12l14.12-1m-28.4,88.43c-1.56-5.15-4.87-7.44-11-7.71,2.94,3.79,5.69,7.38,11,7.71M686.67,212c5-2,7.93-5.41,8.38-10.35l-1.19-.76L686.67,212M524.66,453l2.07,1q2.31-6.34,4.63-12.68l-1.59-.63L524.66,453M483.57,199.61l-2.22.94q2.89,5.25,5.8,10.51l1.79-1-5.37-10.49" fill="#ea7173"/></g></svg>